<svg xmlns="http://www.w3.org/2000/svg" viewBox="0 0 194.406 66.065">
  <defs>
    <style>
      .cls-1 {
        fill: #036a36;
      }

      .cls-2 {
        fill: #f4a71c;
      }
    </style>
  </defs>
  <g id="Group_273" data-name="Group 273" transform="translate(1303.004 -2040.139)">
    <g id="Group_20" data-name="Group 20" transform="translate(-1303.004 2051.06)">
      <path id="Path_200" data-name="Path 200" class="cls-1" d="M-1.248-1.4,7.191-15.01,1.068-21.821l-29.03,31.71H44.954L59.832-15.973,37.948-6.135l6.277-5.3L25.866-31.448Z" transform="translate(27.962 31.448)"/>
    </g>
    <path id="Path_201" data-name="Path 201" class="cls-1" d="M-.947-1.282-2-7.4h-9.917l-3.214,6.114h-6.074L-5.963-28.718h5.33L4.894-1.282Zm-2.86-16.305c-.274-1.608-.509-3.254-.627-4.272-.432,1.018-1.255,2.626-2.118,4.272l-2.625,4.978h6.231Z" transform="translate(-1203.921 2093.602)"/>
    <path id="Path_202" data-name="Path 202" class="cls-1" d="M-.921-.439l-2.04,11.6H-8.368L-6.409.032a10.851,10.851,0,0,0,.157-1.8c0-2-.94-2.98-2.862-2.98-2.153,0-3.566,1.254-4.154,4.664l-1.959,11.249h-5.409l3.606-20.576h5.409l-.235,1.371a6.627,6.627,0,0,1,4.665-1.8c4.429,0,6.545,2.273,6.545,6.39A21.873,21.873,0,0,1-.921-.439" transform="translate(-1176.536 2081.157)"/>
    <path id="Path_203" data-name="Path 203" class="cls-1" d="M-.637-.612H-5.42L-6.869,7.659a3.82,3.82,0,0,0-.078.9c0,1.214.707,1.568,1.88,1.568A4.651,4.651,0,0,0-2.127,8.874l-1.763,5.369A8.156,8.156,0,0,1-7.771,15.3c-3.1,0-4.9-1.921-4.9-4.782a9.1,9.1,0,0,1,.119-1.411l1.723-9.721h-3.448l.9-5.095h3.45L-8.985-11l5.879-2.7-1.41,8H.266Z" transform="translate(-1161.247 2077.449)"/>
    <path id="Path_204" data-name="Path 204" class="cls-1" d="M-.82-.582H-12.972C-13.285,2.239-11.01,3.3-9.129,3.3A7.177,7.177,0,0,0-5.015,1.926l2.627,3.761a11.5,11.5,0,0,1-7.33,2.706c-5.292,0-8.663-3.371-8.663-8.937,0-7.054,4.743-12.5,10.7-12.5,5.174,0,7.486,3.763,7.486,8.349A15.449,15.449,0,0,1-.82-.582M-8.463-8.344c-1.959,0-3.176,1.609-3.8,3.684h6.978c.194-1.959-.746-3.684-3.176-3.684" transform="translate(-1142.76 2084.358)"/>
    <path id="Path_205" data-name="Path 205" class="cls-1" d="M-.672-.319A4.635,4.635,0,0,0-3.846-1.731c-1.8,0-3.175.628-3.921,4.939L-9.648,13.871h-5.409L-11.41-6.707H-6l-.233,1.371a5.186,5.186,0,0,1,3.957-1.8,5.064,5.064,0,0,1,4,1.723Z" transform="translate(-1127.421 2078.45)"/>
    <path id="Path_206" data-name="Path 206" class="cls-1" d="M-.5,0C4.318,0,7.572,3.41,7.572,8.859c0,6.741-4.43,12.581-10.779,12.581-4.822,0-8.074-3.41-8.074-8.859C-11.281,5.84-6.854,0-.5,0M-2.62,16.227C-.19,16.227,2,13.641,2,9.211c0-2.547-1.333-4-3.1-4-2.43,0-4.624,2.586-4.624,7.015,0,2.547,1.332,4,3.1,4" transform="translate(-1116.17 2071.311)"/>
    <path id="Path_207" data-name="Path 207" class="cls-2" d="M-.364-.484H-2.019l-1.392-4.1h-2.5l-.725,4.1H-8.156l1.834-10.351h3.961c2.1,0,3.359.9,3.359,2.765A3.229,3.229,0,0,1-1.8-4.727ZM-2.476-9.37h-2.59l-.576,3.327h2.884c1.331,0,2.142-.621,2.142-1.922,0-.872-.574-1.4-1.86-1.4" transform="translate(-1169.588 2106.524)"/>
    <path id="Path_208" data-name="Path 208" class="cls-2" d="M-.3-.213H-5.223A1.762,1.762,0,0,0-3.434,1.93a3.285,3.285,0,0,0,1.746-.606l.664,1.065a4.156,4.156,0,0,1-2.618.916c-2.01,0-3.238-1.493-3.047-3.786.192-2.661,1.8-4.3,3.773-4.3,1.862,0,2.808,1.331,2.808,3.136A5.465,5.465,0,0,1-.3-.213m-2.78-3.194c-1.034,0-1.67.827-1.952,1.966h3.477c.1-1.124-.372-1.966-1.525-1.966" transform="translate(-1161.47 2102.897)"/>
    <path id="Path_209" data-name="Path 209" class="cls-2" d="M-.271-.1A3.566,3.566,0,0,0-2.46-.9c-.652,0-1.049.266-1.063.725-.031.443.147.651,1.433,1.242,1.36.621,2.144,1.183,2.026,2.47C-.2,5.282-1.631,5.845-2.947,5.845A4.584,4.584,0,0,1-6.068,4.691l.813-1.124A3.649,3.649,0,0,0-2.814,4.5c.754,0,1.241-.326,1.257-.888.031-.443-.222-.739-1.317-1.2C-4.411,1.748-5.136,1.2-5.02-.085c.119-1.48,1.23-2.16,2.7-2.16a4.622,4.622,0,0,1,2.837.932Z" transform="translate(-1155.166 2100.359)"/>
    <path id="Path_210" data-name="Path 210" class="cls-2" d="M-.146-.378c-2.01,0-3.285-1.582-3.107-3.8C-3.073-6.84-1.24-8.467.608-8.467c2.056,0,3.327,1.6,3.135,3.815C3.566-1.99,1.746-.378-.146-.378M.475-7.019c-1.2,0-2.1,1.214-2.189,2.9C-1.8-2.774-1.2-1.827-.013-1.827c1.228,0,2.146-1.256,2.234-2.883C2.307-6.056,1.7-7.019.475-7.019" transform="translate(-1150.846 2106.582)"/>
    <path id="Path_211" data-name="Path 211" class="cls-2" d="M0-.211l.8-4.525H2.317L1.563-.4A4.951,4.951,0,0,0,1.49.35c0,.975.354,1.435,1.257,1.435.946,0,1.7-.725,1.952-2.2l.754-4.317H6.978L5.6,3.027H4.078L4.2,2.361a2.574,2.574,0,0,1-1.922.828A2.154,2.154,0,0,1-.107.779,6.31,6.31,0,0,1,0-.211" transform="translate(-1145.996 2103.014)"/>
    <path id="Path_212" data-name="Path 212" class="cls-2" d="M-.246-.089a1.725,1.725,0,0,0-1.095-.37c-.931,0-1.628.5-1.908,2.145L-3.987,5.93H-5.51l1.374-7.764h1.524l-.134.711A2.392,2.392,0,0,1-.927-2,1.935,1.935,0,0,1,.39-1.568Z" transform="translate(-1133.094 2100.111)"/>
    <path id="Path_213" data-name="Path 213" class="cls-2" d="M-.258-.118A2.016,2.016,0,0,0-1.989-1.2c-1.227,0-2.13,1.168-2.232,2.883-.105,1.405.517,2.308,1.729,2.308a2.537,2.537,0,0,0,1.73-.828L.052,4.2A3.843,3.843,0,0,1-2.684,5.442c-2,0-3.267-1.552-3.077-3.83.194-2.706,1.967-4.259,3.891-4.259A3,3,0,0,1,.866-1.138Z" transform="translate(-1127.3 2100.761)"/>
    <path id="Path_214" data-name="Path 214" class="cls-2" d="M-.3-.213H-5.223A1.761,1.761,0,0,0-3.434,1.93a3.279,3.279,0,0,0,1.745-.606l.664,1.065a4.152,4.152,0,0,1-2.618.916c-2.01,0-3.238-1.493-3.045-3.786.192-2.661,1.8-4.3,3.771-4.3,1.864,0,2.81,1.331,2.81,3.136A5.546,5.546,0,0,1-.3-.213M-3.08-3.407c-1.036,0-1.672.827-1.952,1.966h3.475c.1-1.124-.37-1.966-1.523-1.966" transform="translate(-1119.46 2102.897)"/>
    <path id="Path_215" data-name="Path 215" class="cls-2" d="M-.271-.1A3.57,3.57,0,0,0-2.46-.9c-.652,0-1.051.266-1.065.725-.031.443.147.651,1.435,1.242,1.36.621,2.144,1.183,2.026,2.47C-.2,5.282-1.631,5.845-2.949,5.845A4.579,4.579,0,0,1-6.068,4.691l.813-1.124A3.648,3.648,0,0,0-2.816,4.5c.756,0,1.243-.326,1.259-.888.029-.443-.222-.739-1.317-1.2C-4.411,1.748-5.136,1.2-5.02-.085c.118-1.48,1.23-2.16,2.693-2.16a4.624,4.624,0,0,1,2.839.932Z" transform="translate(-1113.156 2100.359)"/>
    <path id="Path_216" data-name="Path 216" class="cls-2" d="M-1.219,0C-14.637-.94-26.307,9.649-27.284,23.647c-.017.246-.024.49-.033.734l1.69,1.866L-8.278,7.1,11.654,29.146l8.529-6.953C18.551,10.692,10.374.807-1.219,0M-26.168,19.315a31.541,31.541,0,0,0-1.121,4.841,21.961,21.961,0,0,1,1.121-4.841" transform="translate(-1240.837 2040.2)"/>
  </g>
</svg>
