<?xml version="1.0" encoding="utf-8"?>
<!-- Generator: Adobe Illustrator 19.0.0, SVG Export Plug-In . SVG Version: 6.00 Build 0)  -->
<svg version="1.1" id="layer" xmlns="http://www.w3.org/2000/svg" xmlns:xlink="http://www.w3.org/1999/xlink" x="0px" y="0px"
	 viewBox="-153 -46 652 652" style="enable-background:new -153 -46 652 652;" xml:space="preserve">
<style type="text/css">
	.st0{fill:#FF4C00;}
	.st1{fill:#002856;}
</style>
<g>
	<g>
		<path class="st0" d="M-58.7,385.1c-1.7-1-3.6-1.4-6-1.4h-14.9v33.9h6V405h8.9c2.2,0,4.3-0.4,6-1.4c1.7-1,2.9-2.2,3.9-3.9
			c0.8-1.7,1.4-3.3,1.4-5.3s-0.4-3.8-1.4-5.3C-55.7,387.3-57,386.1-58.7,385.1z M-61.3,398.6c-1.1,1.1-2.5,1.5-4.2,1.5h-8.1v-11.7
			h8.1c1.7,0,3.1,0.6,4.2,1.7s1.7,2.5,1.7,4.3C-59.6,396.1-60.2,397.5-61.3,398.6z"/>
		<polygon class="st0" points="-22.8,417.6 0.4,417.6 0.4,412.7 -16.9,412.7 -16.9,402.5 0.1,402.5 0.1,397.7 -16.9,397.7 
			-16.9,388.4 0.4,388.4 0.4,383.7 -22.8,383.7 		"/>
		<polygon class="st0" points="30.5,388.4 40.8,388.4 40.8,417.6 46.6,417.6 46.6,388.4 56.9,388.4 56.9,383.7 30.5,383.7 		"/>
		<path class="st0" d="M111.2,401.1c1.5-1.7,2.4-4,2.4-6.8c0-2.1-0.4-3.9-1.4-5.6c-1-1.7-2.2-2.9-3.9-3.8s-3.6-1.4-5.8-1.4H87.6
			v33.9h6v-12.6h5.8l7.5,12.6h6.8l-8.3-13.3C107.7,403.9,109.7,402.9,111.2,401.1z M93.6,400.1v-11.7h8.1c1.7,0,3.1,0.6,4.2,1.7
			s1.7,2.5,1.7,4.3s-0.6,3.2-1.7,4.3s-2.5,1.5-4.2,1.5h-8.1V400.1z"/>
		<path class="st0" d="M169.9,385.4c-2.6-1.5-5.6-2.2-9-2.2c-3.3,0-6.4,0.7-9,2.2c-2.6,1.5-4.7,3.6-6.1,6.3c-1.5,2.6-2.2,5.7-2.2,9
			c0,3.3,0.7,6.4,2.2,9c1.5,2.6,3.5,4.7,6.1,6.3c2.6,1.5,5.6,2.2,9,2.2c3.3,0,6.4-0.7,9-2.2c2.6-1.5,4.7-3.6,6.1-6.3
			c1.5-2.6,2.2-5.7,2.2-9c0-3.3-0.7-6.4-2.2-9C174.7,389,172.6,386.9,169.9,385.4z M170.8,407.2c-1,1.9-2.2,3.5-3.9,4.6
			s-3.6,1.7-5.8,1.7c-2.2,0-4.2-0.6-5.8-1.7c-1.7-1.1-3.1-2.6-3.9-4.6c-1-1.9-1.4-4.2-1.4-6.5c0-2.5,0.4-4.6,1.4-6.5
			c1-1.9,2.2-3.5,3.9-4.6c1.7-1.1,3.6-1.7,5.8-1.7c2.2,0,4.2,0.6,5.8,1.7s3.1,2.6,3.9,4.6c1,1.9,1.4,4.2,1.4,6.5
			C172.2,403,171.8,405.2,170.8,407.2z"/>
		<polygon class="st0" points="216.2,383.7 210.4,383.7 210.4,417.6 231.2,417.6 231.2,412.7 216.2,412.7 		"/>
		<polygon class="st0" points="262,417.6 285.2,417.6 285.2,412.7 268,412.7 268,402.5 284.8,402.5 284.8,397.7 268,397.7 
			268,388.4 285.2,388.4 285.2,383.7 262,383.7 		"/>
		<path class="st0" d="M340.6,404.4c0,2.8-0.7,5-2.2,6.7c-1.5,1.7-3.6,2.5-6.4,2.5s-4.9-0.8-6.4-2.5c-1.5-1.7-2.2-3.9-2.2-6.7v-20.7
			h-6v20.6c0,4.3,1.3,7.8,3.8,10.3c2.5,2.5,6.1,3.8,11,3.8c4.7,0,8.5-1.2,10.8-3.8c2.5-2.5,3.8-6,3.8-10.3v-20.6h-6v20.7H340.6z"/>
		<polygon class="st0" points="407.2,383.7 397.9,406.5 388.7,383.7 380.4,383.7 380.4,417.6 386.2,417.6 386.2,391.9 396.6,417.6 
			399.1,417.6 409.5,391.9 409.5,417.6 415.5,417.6 415.5,383.7 		"/>
	</g>
	<g>
		<path class="st1" d="M138.1,316.2v-184h-25.3v191.5c0,10.4,8.5,18.9,18.9,18.9h42.1v-23.9h-33.1
			C139.4,318.7,138.1,317.6,138.1,316.2z"/>
		<polygon class="st1" points="442.6,132.2 442.6,159.8 442.6,249.7 408.7,132.2 384.4,132.3 384.4,342.7 408.7,342.7 408.7,226.6 
			442.6,342.7 468,342.7 468,168.3 468,132.2 		"/>
		<path class="st1" d="M-74.8,316.5c0,1.4-1.1,2.6-2.6,2.6h-26.5c-1.4,0-2.6-1.1-2.6-2.6l-0.3-159.7c0-1.4,1.1-2.6,2.6-2.6h26.5
			c1.4,0,2.6,1.1,2.6,2.6v43.9h25.3l0.1-49.2c0-10.8-8.8-19.6-19.6-19.6h-43.2c-10.8,0-19.6,8.8-19.6,19.6l0.1,171.8
			c0,10.8,8.8,19.6,19.6,19.6h43.3c10.8,0,19.6-8.8,19.6-19.6v-47.4h-25.3L-74.8,316.5z"/>
		<path class="st1" d="M218.7,316.2v-184h-25.3v191.5c0,10.4,8.5,18.9,18.9,18.9h42.1v-23.9h-33.1
			C219.8,318.7,218.7,317.6,218.7,316.2z"/>
		<path class="st1" d="M336.3,131.9h-45c-10.8,0-19.6,8.8-19.6,19.6l0.1,171.8c0,10.8,8.7,19.6,19.6,19.6h44.7
			c10.8,0,19.6-8.8,19.6-19.6l0.1-171.8C355.9,140.7,347.2,131.9,336.3,131.9z M330.5,316.5c0,1.4-1.1,2.6-2.6,2.6h-28.1
			c-1.4,0-2.6-1.1-2.6-2.6l-0.3-159.7c0-1.4,1.1-2.6,2.6-2.6H328c1.4,0,2.6,1.1,2.6,2.6L330.5,316.5z"/>
		<path class="st1" d="M61.1,155.8l-0.6-6c-0.8-10.1-9.3-17.9-19.4-17.9H19c-10.1,0-18.6,7.8-19.4,17.8l-0.6,6l-8.5,96.3h-15.6v23.9
			h13.3l-6,66.7H9.7l6-66.7h28.9l6,66.7h27.2l-6-66.7h13.7V252H69.7L61.1,155.8z M17.7,252l8.3-94c0.1-1.3,1.3-2.4,2.5-2.4h2.9
			c1.3,0,2.4,1,2.5,2.4l8.3,94H17.7z"/>
	</g>
</g>
</svg>
