<?xml version="1.0" encoding="UTF-8" standalone="no"?>
<!-- Created with Inkscape (http://www.inkscape.org/) -->

<svg
   xmlns:dc="http://purl.org/dc/elements/1.1/"
   xmlns:cc="http://creativecommons.org/ns#"
   xmlns:rdf="http://www.w3.org/1999/02/22-rdf-syntax-ns#"
   xmlns:svg="http://www.w3.org/2000/svg"
   xmlns="http://www.w3.org/2000/svg"
   xmlns:xlink="http://www.w3.org/1999/xlink"
   xmlns:sodipodi="http://sodipodi.sourceforge.net/DTD/sodipodi-0.dtd"
   xmlns:inkscape="http://www.inkscape.org/namespaces/inkscape"
   width="300.20001"
   height="236.175"
   viewBox="0 0 79.427918 62.487971"
   version="1.1"
   id="svg8"
   inkscape:version="0.92.3 (2405546, 2018-03-11)"
   sodipodi:docname="EDP logo.svg">
  <title
     id="title954">EDP logo</title>
  <defs
     id="defs2">
    <linearGradient
       id="linearGradient906"
       inkscape:collect="always">
      <stop
         id="stop902"
         offset="0"
         style="stop-color:#000000;stop-opacity:1" />
      <stop
         id="stop904"
         offset="1"
         style="stop-color:#000000;stop-opacity:0" />
    </linearGradient>
    <linearGradient
       inkscape:collect="always"
       xlink:href="#linearGradient906"
       id="linearGradient892"
       x1="203.54016"
       y1="87.52948"
       x2="203.54016"
       y2="22.895542"
       gradientUnits="userSpaceOnUse" />
    <linearGradient
       inkscape:collect="always"
       xlink:href="#linearGradient906"
       id="linearGradient900"
       x1="210.91071"
       y1="12.123228"
       x2="210.91071"
       y2="93.199112"
       gradientUnits="userSpaceOnUse" />
    <linearGradient
       inkscape:collect="always"
       xlink:href="#linearGradient906"
       id="linearGradient920"
       x1="212.12617"
       y1="30.927532"
       x2="212.12617"
       y2="79.119499"
       gradientUnits="userSpaceOnUse" />
    <linearGradient
       inkscape:collect="always"
       xlink:href="#linearGradient906"
       id="linearGradient928"
       x1="202.2988"
       y1="79.308487"
       x2="202.2988"
       y2="25.635864"
       gradientUnits="userSpaceOnUse" />
  </defs>
  <sodipodi:namedview
     id="base"
     pagecolor="#ffffff"
     bordercolor="#666666"
     borderopacity="1.0"
     inkscape:pageopacity="0.0"
     inkscape:pageshadow="2"
     inkscape:zoom="0.49497475"
     inkscape:cx="15.17195"
     inkscape:cy="266.34802"
     inkscape:document-units="px"
     inkscape:current-layer="layer1"
     showgrid="false"
     showguides="false"
     inkscape:guide-bbox="true"
     inkscape:snap-to-guides="true"
     units="px"
     fit-margin-left="0.1"
     fit-margin-top="0.1"
     fit-margin-right="0.1"
     fit-margin-bottom="0.1"
     inkscape:window-width="1366"
     inkscape:window-height="705"
     inkscape:window-x="-8"
     inkscape:window-y="-8"
     inkscape:window-maximized="1" />
  <metadata
     id="metadata5">
    <rdf:RDF>
      <cc:Work
         rdf:about="">
        <dc:format>image/svg+xml</dc:format>
        <dc:type
           rdf:resource="http://purl.org/dc/dcmitype/StillImage" />
        <dc:title>EDP logo</dc:title>
        <cc:license
           rdf:resource="http://creativecommons.org/licenses/by-sa/4.0/" />
        <dc:date>15/10/2018</dc:date>
        <dc:creator>
          <cc:Agent>
            <dc:title>EDP</dc:title>
          </cc:Agent>
        </dc:creator>
        <dc:publisher>
          <cc:Agent>
            <dc:title>CMetalCore</dc:title>
          </cc:Agent>
        </dc:publisher>
      </cc:Work>
      <cc:License
         rdf:about="http://creativecommons.org/licenses/by-sa/4.0/">
        <cc:permits
           rdf:resource="http://creativecommons.org/ns#Reproduction" />
        <cc:permits
           rdf:resource="http://creativecommons.org/ns#Distribution" />
        <cc:requires
           rdf:resource="http://creativecommons.org/ns#Notice" />
        <cc:requires
           rdf:resource="http://creativecommons.org/ns#Attribution" />
        <cc:permits
           rdf:resource="http://creativecommons.org/ns#DerivativeWorks" />
        <cc:requires
           rdf:resource="http://creativecommons.org/ns#ShareAlike" />
      </cc:License>
    </rdf:RDF>
  </metadata>
  <g
     inkscape:label="Capa 1"
     inkscape:groupmode="layer"
     id="layer1"
     transform="translate(-157.37464,-31.965796)">
    <g
       id="g952"
       transform="matrix(0.79224671,0,0,0.79224671,32.700596,19.617584)">
      <g
         id="g941">
        <path
           style="opacity:1;fill:#ee162d;fill-opacity:1;fill-rule:nonzero;stroke:none;stroke-width:0.19669811;stroke-linecap:round;stroke-linejoin:round;stroke-miterlimit:4;stroke-dasharray:none;stroke-dashoffset:0;stroke-opacity:1;paint-order:stroke fill markers"
           d="m 196.80541,15.619718 a 39.404017,39.404017 0 0 0 -39.40431,39.403796 39.404017,39.404017 0 0 0 39.40431,39.403795 39.404017,39.404017 0 0 0 10.74301,-1.502749 39.404017,39.404017 0 0 0 10.63811,1.502749 39.404017,39.404017 0 0 0 39.40432,-39.403795 39.404017,39.404017 0 0 0 -39.40432,-39.403796 39.404017,39.404017 0 0 0 -10.74301,1.502751 39.404017,39.404017 0 0 0 -10.63811,-1.502751 z"
           id="path861"
           inkscape:connector-curvature="0" />
        <g
           id="g910">
          <circle
             r="31.938988"
             cy="55.023518"
             cx="210.91071"
             id="path869"
             style="opacity:0.32400004;fill:url(#linearGradient900);fill-opacity:1;fill-rule:nonzero;stroke:none;stroke-width:0.17789474;stroke-linecap:round;stroke-linejoin:round;stroke-miterlimit:4;stroke-dasharray:none;stroke-dashoffset:0;stroke-opacity:1;paint-order:stroke fill markers" />
          <circle
             style="opacity:0.34900004;fill:url(#linearGradient892);fill-opacity:1;fill-rule:nonzero;stroke:none;stroke-width:0.17789474;stroke-linecap:round;stroke-linejoin:round;stroke-miterlimit:4;stroke-dasharray:none;stroke-dashoffset:0;stroke-opacity:1;paint-order:stroke fill markers"
             id="circle871"
             cx="204.10713"
             cy="55.023518"
             r="31.938988" />
        </g>
        <g
           id="g932">
          <circle
             style="opacity:0.53200001;fill:url(#linearGradient920);fill-opacity:1;fill-rule:nonzero;stroke:none;stroke-width:0.13263159;stroke-linecap:round;stroke-linejoin:round;stroke-miterlimit:4;stroke-dasharray:none;stroke-dashoffset:0;stroke-opacity:1;paint-order:stroke fill markers"
             id="circle878"
             cx="212.31517"
             cy="54.92902"
             r="23.8125" />
          <circle
             r="23.8125"
             cy="55.118008"
             cx="202.67677"
             id="circle880"
             style="opacity:0.51399997;fill:url(#linearGradient928);fill-opacity:1;fill-rule:nonzero;stroke:none;stroke-width:0.13263159;stroke-linecap:round;stroke-linejoin:round;stroke-miterlimit:4;stroke-dasharray:none;stroke-dashoffset:0;stroke-opacity:1;paint-order:stroke fill markers" />
        </g>
      </g>
      <path
         sodipodi:nodetypes="cccccccccccccscsccccscccsccscccccsccsscccsccsscccsccs"
         inkscape:connector-curvature="0"
         id="path852"
         d="m 213.246,38.605909 c -1.00084,0 -1.83498,0.59445 -1.93735,1.228349 l -0.68471,5.622396 c -4.88808,-1.476071 -8.01384,1.63381 -8.66976,6.82594 l -6.47557,7.131347 c -1.2653,1.138817 -4.33769,2.100482 -4.89428,0.05013 l 5.74746,-4.156334 c 1.18005,-1.019974 2.34337,-2.156876 2.6882,-3.661275 0.85481,-3.12597 -0.26199,-4.376455 -1.77095,-5.612577 -1.16865,-0.98642 -4.03665,-1.352939 -6.34741,-0.217041 -1.86448,1.076459 -2.96494,2.698747 -3.16777,4.055565 l -0.96686,7.720976 c -2.97367,1.470596 -2.37995,4.59496 0.36328,4.128431 0.92857,1.875671 2.77297,2.820498 5.14077,2.820498 3.4011,0 6.19979,-2.180241 8.89196,-5.998599 -0.5447,4.311804 2.52819,5.998599 5.40691,5.998599 2.14996,0 4.29836,-1.11842 5.84615,-2.679938 l 3.87729,-3.554307 -1.37408,10.877889 c -0.15225,1.205182 0.80297,2.25516 1.80713,2.25516 1.06704,-0.02362 1.88494,-0.53621 2.06292,-1.9451 l 0.67644,-5.354712 c 1.65134,0.626563 3.32113,0.613389 4.49999,0.01964 l 5.22035,-2.243791 c 0.49288,-0.284566 1.01596,-0.694193 1.01596,-1.768629 0,-1.64257 -1.50729,-1.990315 -2.21278,-1.990315 l 0.84594,-6.697265 c 0.50441,-3.992864 -2.41962,-6.265251 -5.08238,-6.265251 -3.77723,0 -6.16269,2.849059 -6.67815,6.929291 l -3.94704,4.104143 2.00815,-15.895669 c 0.10717,-0.848389 -0.9526,-1.727544 -1.88981,-1.727544 z m -19.37143,10.016442 c 2.07136,0 2.16571,2.008145 0.7798,3.331065 l -3.80339,2.763655 c 0.50113,-5.133157 1.08042,-6.09472 3.02359,-6.09472 z m 14.29939,0.01757 c 1.24609,0 1.93647,0.496771 1.78852,1.91616 l -1.11053,8.154543 v 0 c -0.1933,1.186815 -1.0243,1.917195 -2.01486,1.917195 -1.2461,0 -1.93648,-0.497803 -1.78852,-1.917195 l 1.03973,-8.154543 c 0.19329,-1.186812 1.0951,-1.91616 2.08566,-1.91616 z m 15.16755,0 c 1.24609,0 1.93647,0.496769 1.78852,1.91616 l -1.11053,8.154543 v 0 c -0.1933,1.186815 -1.0243,1.917195 -2.01486,1.917195 -1.24609,0 -1.93648,-0.497803 -1.78852,-1.917195 l 1.03973,-8.154543 c 0.1933,-1.186815 1.0951,-1.91616 2.08566,-1.91616 z"
         style="opacity:1;fill:#ffffff;fill-rule:evenodd;stroke:none;stroke-width:0.26458332px;stroke-linecap:butt;stroke-linejoin:miter;stroke-opacity:1" />
    </g>
  </g>
</svg>
