<?xml version="1.0" standalone="no"?>
<!DOCTYPE svg PUBLIC "-//W3C//DTD SVG 20010904//EN"
 "http://www.w3.org/TR/2001/REC-SVG-20010904/DTD/svg10.dtd">
<svg version="1.0" xmlns="http://www.w3.org/2000/svg"
 width="215.000000pt" height="70.000000pt" viewBox="0 0 215.000000 70.000000"
 preserveAspectRatio="xMidYMid meet">

<g transform="translate(0.000000,70.000000) scale(0.100000,-0.100000)"
fill="#000000" stroke="none">
<path d="M277 660 c-108 -42 -220 -159 -253 -265 -16 -48 -15 -55 1 -104 44
-132 215 -280 326 -281 87 0 250 125 304 234 49 98 26 196 -70 301 l-46 50 45
-58 c50 -63 70 -98 80 -139 5 -24 3 -28 -14 -28 -11 0 -20 -4 -20 -10 0 -5 -4
-10 -10 -10 -5 0 -10 6 -10 13 0 13 -78 100 -125 137 -16 14 -5 -2 26 -35 68
-72 82 -97 74 -134 -7 -32 -167 -194 -203 -205 -42 -14 -87 13 -172 99 l-83
85 6 46 c4 41 13 54 71 113 64 65 95 113 36 56 -16 -15 -42 -30 -57 -31 -20
-2 -24 -1 -13 6 12 8 12 10 -2 15 -14 6 -15 10 -5 28 34 62 92 104 171 123 39
9 44 12 21 13 -16 0 -52 -8 -78 -19z"/>
<path d="M300 559 c0 -3 11 -20 25 -39 14 -19 25 -38 25 -42 0 -5 -18 -28 -40
-52 -32 -34 -40 -51 -40 -80 0 -49 36 -86 83 -86 75 0 118 91 68 143 -16 16
-19 17 -31 3 -10 -13 -10 -16 3 -16 35 0 36 -62 1 -89 -34 -27 -50 -26 -79 4
-39 38 -32 60 48 143 39 41 61 68 48 59 -29 -19 -48 -13 -83 27 -15 17 -27 28
-28 25z"/>
<path d="M1070 375 c0 -78 2 -85 20 -85 18 0 20 7 20 85 0 78 -2 85 -20 85
-18 0 -20 -7 -20 -85z"/>
<path d="M1355 395 c-14 -13 -25 -33 -25 -45 0 -44 76 -90 96 -58 5 8 2 9 -11
4 -10 -4 -28 0 -41 9 -28 18 -32 65 -8 89 18 19 20 19 45 6 30 -16 23 -38 -13
-43 -32 -4 -32 -4 5 -5 30 -2 37 1 37 17 0 23 -25 51 -46 51 -8 0 -26 -11 -39
-25z"/>
<path d="M1493 413 c-9 -3 -12 -25 -11 -66 l2 -62 3 55 c3 30 9 60 15 67 11
14 10 14 -9 6z"/>
<path d="M1543 404 c11 -13 17 -37 17 -67 0 -26 5 -47 11 -47 6 0 9 20 7 51
-2 42 -8 55 -28 68 -25 15 -25 15 -7 -5z"/>
<path d="M1631 401 c-21 -21 -28 -66 -13 -87 18 -27 82 -45 82 -23 0 6 -6 9
-12 6 -48 -18 -84 57 -46 95 11 11 17 22 15 25 -3 2 -15 -5 -26 -16z"/>
<path d="M1689 397 c25 -28 24 -29 -24 -41 -11 -2 -4 -4 15 -3 43 2 48 31 10
55 l-25 16 24 -27z"/>
<path d="M1778 413 c-15 -4 -18 -15 -16 -66 2 -61 2 -61 5 -12 3 27 11 58 20
67 9 10 14 17 12 17 -2 -1 -12 -3 -21 -6z"/>
<path d="M2090 410 c0 -5 5 -10 10 -10 14 0 12 -27 -2 -33 -10 -4 -10 -6 0 -6
7 -1 12 -15 12 -36 0 -19 5 -35 10 -35 17 0 12 97 -6 114 -18 19 -24 20 -24 6z"/>
<path d="M798 399 c-21 -12 -25 -78 -6 -97 7 -7 25 -12 40 -12 17 0 28 -5 28
-14 0 -18 -22 -26 -49 -19 -12 3 -21 1 -21 -5 0 -13 32 -21 64 -15 37 7 47 33
44 106 l-3 62 -40 2 c-22 2 -48 -2 -57 -8z m62 -49 c0 -51 -12 -64 -38 -38
-15 15 -15 61 0 76 26 26 38 13 38 -38z"/>
<path d="M940 399 c0 -6 7 -8 16 -5 19 7 54 -1 54 -14 0 -4 -15 -11 -34 -14
-39 -7 -61 -29 -52 -51 8 -22 51 -36 86 -29 28 6 30 9 30 53 0 26 -5 52 -12
59 -15 15 -88 16 -88 1z m70 -69 c0 -26 -25 -36 -45 -20 -12 10 -13 16 -4 26
18 22 49 17 49 -6z"/>
<path d="M1140 325 c0 -78 2 -85 20 -85 15 0 20 7 20 25 0 21 5 25 30 25 33 0
50 22 50 67 0 41 -17 53 -72 53 l-48 0 0 -85z m78 63 c15 -15 15 -61 0 -76
-26 -26 -38 -13 -38 38 0 51 12 64 38 38z"/>
<path d="M1846 394 c-34 -34 -5 -115 42 -114 12 1 10 5 -10 15 -15 8 -29 23
-33 34 -7 23 9 67 27 74 8 4 9 6 1 6 -6 1 -19 -6 -27 -15z"/>
<path d="M1917 340 c2 -78 -13 -105 -51 -95 -18 5 -18 4 -4 -5 11 -7 25 -7 42
0 25 9 26 13 26 90 0 44 -3 80 -7 80 -5 0 -7 -31 -6 -70z"/>
<path d="M1983 350 c0 -36 2 -50 4 -32 2 17 2 47 0 65 -2 17 -4 3 -4 -33z"/>
<path d="M2042 348 c-28 -28 -1 -69 45 -67 12 0 9 4 -9 11 -32 11 -37 42 -10
57 14 9 14 10 2 11 -9 0 -21 -5 -28 -12z"/>
</g>
</svg>
