<?xml version="1.0" encoding="UTF-8" standalone="no"?>
<!-- Created with Inkscape (http://www.inkscape.org/) -->

<svg
   xmlns:dc="http://purl.org/dc/elements/1.1/"
   xmlns:cc="http://creativecommons.org/ns#"
   xmlns:rdf="http://www.w3.org/1999/02/22-rdf-syntax-ns#"
   xmlns:svg="http://www.w3.org/2000/svg"
   xmlns="http://www.w3.org/2000/svg"
   xmlns:sodipodi="http://sodipodi.sourceforge.net/DTD/sodipodi-0.dtd"
   xmlns:inkscape="http://www.inkscape.org/namespaces/inkscape"
   version="1.1"
   id="svg2"
   xml:space="preserve"
   width="395.91516"
   height="83.973976"
   viewBox="0 0 395.91516 83.973975"
   sodipodi:docname="Iberdrola logo.svg"
   inkscape:version="0.92.2 5c3e80d, 2017-08-06"><metadata
     id="metadata8"><rdf:RDF><cc:Work
         rdf:about=""><dc:format>image/svg+xml</dc:format><dc:type
           rdf:resource="http://purl.org/dc/dcmitype/StillImage" /><dc:title></dc:title></cc:Work></rdf:RDF></metadata><defs
     id="defs6"><radialGradient
       fx="0"
       fy="0"
       cx="0"
       cy="0"
       r="1"
       gradientUnits="userSpaceOnUse"
       gradientTransform="matrix(34.594383,0,0,34.594383,39.4375,820.7334)"
       spreadMethod="pad"
       id="radialGradient76"><stop
         style="stop-opacity:1;stop-color:#dfe8f7"
         offset="0"
         id="stop68" /><stop
         style="stop-opacity:1;stop-color:#dfe8f7"
         offset="0.48337668"
         id="stop70" /><stop
         style="stop-opacity:1;stop-color:#3870c0"
         offset="0.88542"
         id="stop72" /><stop
         style="stop-opacity:1;stop-color:#3870c0"
         offset="1"
         id="stop74" /></radialGradient><linearGradient
       x1="0"
       y1="0"
       x2="1"
       y2="0"
       gradientUnits="userSpaceOnUse"
       gradientTransform="matrix(12.01614,-18.441883,18.441883,12.01614,37.828125,811.19434)"
       spreadMethod="pad"
       id="linearGradient102"><stop
         style="stop-opacity:1;stop-color:#bdd41f"
         offset="0"
         id="stop92" /><stop
         style="stop-opacity:1;stop-color:#bdd41f"
         offset="0.033705"
         id="stop94" /><stop
         style="stop-opacity:1;stop-color:#bdd41f"
         offset="0.14738971"
         id="stop96" /><stop
         style="stop-opacity:1;stop-color:#518e32"
         offset="0.8"
         id="stop98" /><stop
         style="stop-opacity:1;stop-color:#518e32"
         offset="1"
         id="stop100" /></linearGradient><radialGradient
       fx="0"
       fy="0"
       cx="0"
       cy="0"
       r="1"
       gradientUnits="userSpaceOnUse"
       gradientTransform="matrix(34.594242,0,0,34.594242,30.71875,820.76465)"
       spreadMethod="pad"
       id="radialGradient128"><stop
         style="stop-opacity:1;stop-color:#c2dd2f"
         offset="0"
         id="stop118" /><stop
         style="stop-opacity:1;stop-color:#c2dd2f"
         offset="0.19099"
         id="stop120" /><stop
         style="stop-opacity:1;stop-color:#518e32"
         offset="0.62899259"
         id="stop122" /><stop
         style="stop-opacity:1;stop-color:#518e32"
         offset="0.76999"
         id="stop124" /><stop
         style="stop-opacity:1;stop-color:#518e32"
         offset="1"
         id="stop126" /></radialGradient><radialGradient
       fx="0"
       fy="0"
       cx="0"
       cy="0"
       r="1"
       gradientUnits="userSpaceOnUse"
       gradientTransform="matrix(34.538277,0,0,34.538277,39.5,820.70215)"
       spreadMethod="pad"
       id="radialGradient156"><stop
         style="stop-opacity:1;stop-color:#ffffff"
         offset="0"
         id="stop144" /><stop
         style="stop-opacity:1;stop-color:#b3caea"
         offset="0.12298742"
         id="stop146" /><stop
         style="stop-opacity:1;stop-color:#b3caea"
         offset="0.38201"
         id="stop148" /><stop
         style="stop-opacity:1;stop-color:#3870c0"
         offset="0.74256378"
         id="stop150" /><stop
         style="stop-opacity:1;stop-color:#3870c0"
         offset="0.8"
         id="stop152" /><stop
         style="stop-opacity:1;stop-color:#3870c0"
         offset="1"
         id="stop154" /></radialGradient><radialGradient
       fx="0"
       fy="0"
       cx="0"
       cy="0"
       r="1"
       gradientUnits="userSpaceOnUse"
       gradientTransform="matrix(34.594028,0,0,34.594028,48.34375,820.76465)"
       spreadMethod="pad"
       id="radialGradient186"><stop
         style="stop-opacity:1;stop-color:#f2f021"
         offset="0"
         id="stop172" /><stop
         style="stop-opacity:1;stop-color:#f2f021"
         offset="0.13541"
         id="stop174" /><stop
         style="stop-opacity:1;stop-color:#fbc419"
         offset="0.28673611"
         id="stop176" /><stop
         style="stop-opacity:1;stop-color:#fbc419"
         offset="0.5"
         id="stop178" /><stop
         style="stop-opacity:1;stop-color:#f46b18"
         offset="0.88814802"
         id="stop180" /><stop
         style="stop-opacity:1;stop-color:#f46b18"
         offset="0.94998"
         id="stop182" /><stop
         style="stop-opacity:1;stop-color:#f46b18"
         offset="1"
         id="stop184" /></radialGradient></defs><sodipodi:namedview
     pagecolor="#ffffff"
     bordercolor="#666666"
     borderopacity="1"
     objecttolerance="10"
     gridtolerance="10"
     guidetolerance="10"
     inkscape:pageopacity="0"
     inkscape:pageshadow="2"
     inkscape:window-width="1280"
     inkscape:window-height="669"
     id="namedview4"
     showgrid="false"
     fit-margin-top="0"
     fit-margin-left="0"
     fit-margin-right="0"
     fit-margin-bottom="0"
     inkscape:zoom="1.6819299"
     inkscape:cx="227.53839"
     inkscape:cy="54.687534"
     inkscape:window-x="0"
     inkscape:window-y="1"
     inkscape:window-maximized="1"
     inkscape:current-layer="g10" /><g
     id="g10"
     inkscape:groupmode="layer"
     inkscape:label="IBERDROLA_Condiciones_Particulares_Smart_EN1"
     transform="matrix(1.3333333,0,0,-1.3333333,-45.681723,1089.0773)"><g
       id="g2554"
       transform="matrix(2.1281504,0,0,2.1281504,-38.651894,-921.48229)"><g
         id="g56"><g
           id="g58"><g
             id="g64"><g
               id="g66"><path
                 inkscape:connector-curvature="0"
                 id="path78"
                 style="fill:url(#radialGradient76);stroke:none"
                 d="m 43.045,799.616 c -0.022,-1.269 0.513,-3.04 1.947,-4.471 v 0 c 4.891,-4.893 18.294,-2.035 10.191,21.663 v 0 C 54.464,807.684 43.2,808.305 43.045,799.616" /></g></g></g></g><g
         id="g80"><g
           id="g82"><g
             id="g88"><g
               id="g90"><path
                 inkscape:connector-curvature="0"
                 id="path104"
                 style="fill:url(#linearGradient102);stroke:none"
                 d="m 34.262,799.616 c -0.023,-1.269 0.514,-3.04 1.948,-4.471 v 0 c 0.475,-0.477 1.031,-0.875 1.639,-1.192 v 0 c -0.379,-1.94 -0.522,-4.161 -0.256,-6.739 v 0 l 1.37,0.073 c -0.502,2.377 -0.55,4.46 -0.308,6.307 v 0 c 5.747,-2.148 14.725,2.8 7.747,23.214 v 0 c -0.721,-9.124 -11.985,-8.503 -12.14,-17.192" /></g></g></g></g><g
         id="g106"><g
           id="g108"><g
             id="g114"><g
               id="g116"><path
                 inkscape:connector-curvature="0"
                 id="path130"
                 style="fill:url(#radialGradient128);stroke:none"
                 d="m 34.262,799.616 c -0.023,-1.269 0.514,-3.04 1.948,-4.471 v 0 c 0.475,-0.477 1.031,-0.875 1.639,-1.192 v 0 c 0.307,1.576 0.769,2.963 1.298,4.199 v 0 c -0.928,1.467 -1.895,4.32 -1.843,6.303 v 0 l 10e-4,10e-4 c 0.397,-1.701 1.308,-3.977 2.196,-5.519 v 0 c 0.702,1.473 1.534,2.786 2.376,4.063 v 0 c -0.941,1.414 -1.182,3.74 -1.167,4.196 v 0 c 0,0.007 0.01,0.007 0.016,0.011 v 0 c 0.247,-0.807 0.715,-2.189 1.576,-3.564 v 0 c 0.797,1.204 1.579,2.386 2.234,3.658 v 0 c -0.423,0.866 -0.702,2.224 -0.673,2.665 v 0 h 0.002 c 0.178,-0.6 0.667,-1.381 1.059,-1.867 v 0 c 0.867,1.714 1.303,3.133 1.494,4.043 v 0 c 0.213,1.408 0.234,2.944 -0.016,4.666 v 0 c -0.721,-9.124 -11.985,-8.503 -12.14,-17.192" /></g></g></g></g><g
         id="g132"><g
           id="g134"><g
             id="g140"><g
               id="g142"><path
                 inkscape:connector-curvature="0"
                 id="path158"
                 style="fill:url(#radialGradient156);stroke:none"
                 d="m 43.045,799.616 c -0.022,-1.269 0.513,-3.04 1.947,-4.471 v 0 c 0.171,-0.171 0.352,-0.331 0.541,-0.482 v 0 c 2.476,2.016 4.115,6.154 3.113,13.204 v 0 c -2.834,-2.009 -5.526,-4.034 -5.601,-8.251" /></g></g></g></g><g
         id="g160"><g
           id="g162"><g
             id="g168"><g
               id="g170"><path
                 inkscape:connector-curvature="0"
                 id="path188"
                 style="fill:url(#radialGradient186);stroke:none"
                 d="m 51.93,799.616 c -0.023,-1.269 0.514,-3.04 1.946,-4.471 v 0 c 4.891,-4.893 18.295,-2.035 10.192,21.663 v 0 C 63.346,807.684 52.084,808.305 51.93,799.616" /></g></g></g></g><g
         transform="translate(134.4854,801.6357)"
         id="g198"><path
           inkscape:connector-curvature="0"
           id="path200"
           style="fill:#4a881e;fill-opacity:1;fill-rule:nonzero;stroke:none"
           d="m 0,0 c 0.954,0.291 2.621,1.113 2.621,3.324 0,1.725 -1.371,3.469 -3.994,3.469 H -6.972 V -5.812 h 2.594 V 5.079 h 2.045 c 1.968,0 2.262,-1.173 2.262,-1.871 0,-1.164 -0.837,-1.892 -2.185,-1.892 -0.874,-0.003 -1.371,-0.343 -1.371,-0.92 0,-0.322 0.202,-0.743 1.165,-0.89 1.187,-0.186 1.667,-1.346 2.275,-2.813 0,0 0.525,-1.24 0.707,-1.641 0.179,-0.398 0.343,-0.864 1.242,-0.864 H 3.784 L 2.891,-3.889 C 1.997,-1.91 1.284,-0.746 0,0" /></g><g
         transform="translate(108.9502,801.6357)"
         id="g202"><path
           inkscape:connector-curvature="0"
           id="path204"
           style="fill:#4a881e;fill-opacity:1;fill-rule:nonzero;stroke:none"
           d="m 0,0 c 0.955,0.291 2.622,1.113 2.622,3.324 0,1.725 -1.372,3.469 -3.995,3.469 h -5.6 V -5.812 h 2.595 V 5.079 h 2.045 c 1.968,0 2.262,-1.173 2.262,-1.871 0,-1.164 -0.837,-1.892 -2.183,-1.892 -0.874,-0.003 -1.374,-0.343 -1.374,-0.92 0,-0.322 0.203,-0.743 1.165,-0.89 1.19,-0.186 1.668,-1.346 2.277,-2.813 0,0 0.524,-1.24 0.706,-1.641 0.179,-0.398 0.343,-0.864 1.243,-0.864 H 3.784 L 2.892,-3.889 C 1.996,-1.91 1.283,-0.746 0,0" /></g><path
         inkscape:connector-curvature="0"
         id="path206"
         style="fill:#4a881e;fill-opacity:1;fill-rule:nonzero;stroke:none"
         d="m 73.262,795.821 h 2.597 v 12.604 h -2.597 z" /><g
         transform="translate(93.3457,801.4727)"
         id="g208"><path
           inkscape:connector-curvature="0"
           id="path210"
           style="fill:#4a881e;fill-opacity:1;fill-rule:nonzero;stroke:none"
           d="M 0,0 H 6.078 V 1.714 H 0 V 5.24 H 6.373 V 6.954 H -2.596 V -5.651 h 9.104 v 1.714 H 0 Z" /></g><g
         transform="translate(116.6963,806.7129)"
         id="g212"><path
           inkscape:connector-curvature="0"
           id="path214"
           style="fill:#4a881e;fill-opacity:1;fill-rule:nonzero;stroke:none"
           d="m 0,0 h 2.081 c 2.903,0 4.567,-1.674 4.567,-4.588 0,-2.872 -1.692,-4.589 -4.529,-4.589 H 0 Z m 2.511,1.714 h -5.106 v -12.606 h 4.737 c 4.642,0 7.2,2.233 7.2,6.285 0,3.901 -2.618,6.321 -6.831,6.321" /></g><g
         transform="translate(145.124,797.6924)"
         id="g216"><path
           inkscape:connector-curvature="0"
           id="path218"
           style="fill:#4a881e;fill-opacity:1;fill-rule:nonzero;stroke:none"
           d="m 0,0 c -2.577,0 -4.055,1.615 -4.055,4.433 0,2.814 1.478,4.431 4.055,4.431 2.565,0 4.033,-1.617 4.033,-4.431 C 4.033,1.615 2.565,0 0,0 m 0,10.91 c -4.66,0 -6.746,-3.252 -6.746,-6.477 0,-3.226 2.086,-6.481 6.746,-6.481 4.62,0 6.728,3.359 6.728,6.481 0,3.225 -2.082,6.477 -6.728,6.477" /></g><g
         transform="translate(81.291,806.7129)"
         id="g220"><path
           inkscape:connector-curvature="0"
           id="path222"
           style="fill:#4a881e;fill-opacity:1;fill-rule:nonzero;stroke:none"
           d="m 0,0 h 2.105 c 1.523,0 2.066,-0.834 2.066,-1.61 0,-0.873 -0.646,-1.811 -2.066,-1.811 -0.876,0 -1.375,-0.311 -1.375,-0.856 0,-0.253 0.13,-0.848 1.363,-0.857 l 0.599,-0.003 c 1.389,0 2.399,-0.852 2.399,-2.034 0,-1.776 -1.524,-2.006 -2.849,-2.006 H 0 Z m 4.687,-4.037 c 0.918,0.388 2.176,1.216 2.176,2.863 0,1.439 -1.255,2.888 -4.054,2.888 h -5.403 v -12.606 h 6.126 c 3.924,0 4.348,2.481 4.348,3.546 0,2.205 -1.963,3.017 -3.193,3.309" /></g><g
         transform="translate(164.7002,800.3486)"
         id="g224"><path
           inkscape:connector-curvature="0"
           id="path226"
           style="fill:#4a881e;fill-opacity:1;fill-rule:nonzero;stroke:none"
           d="M 0,0 C 0.131,0.341 1.762,4.657 2.092,5.535 2.448,4.685 4.199,0.53 4.421,0 Z M 3.488,8.078 H 0.646 l -5.1,-12.605 h 0.018 2.725 c 0,0 0.898,2.375 0.999,2.64 h 5.933 c 0.1,-0.246 0.736,-1.775 0.736,-1.775 0.171,-0.404 0.364,-0.865 1.239,-0.865 h 1.893 z" /></g><g
         transform="translate(156.0215,797.5371)"
         id="g228"><path
           inkscape:connector-curvature="0"
           id="path230"
           style="fill:#4a881e;fill-opacity:1;fill-rule:nonzero;stroke:none"
           d="M 0,0 V 10.888 H -2.598 V -1.715 H 3.943 L 3.953,0 Z" /></g></g></g></svg>