<?xml version="1.0" encoding="utf-8"?>
<!-- Generator: Adobe Illustrator 19.2.1, SVG Export Plug-In . SVG Version: 6.00 Build 0)  -->
<svg version="1.1" xmlns="http://www.w3.org/2000/svg" xmlns:xlink="http://www.w3.org/1999/xlink" x="0px" y="0px"
	 viewBox="0 0 652 652" style="enable-background:new 0 0 652 652;" xml:space="preserve">
<style type="text/css">
	.st0{fill:#0C0407;}
	.st1{fill:#004A98;}
	.st2{fill:#5274B3;}
	.st3{fill:#93A1CE;}
	.st4{fill:#B8C0DF;}
	.st5{fill:#00275E;}
</style>
<g id="Layer_1">
	<g>
		<path class="st0" d="M240,670.9l1.6-0.1c0.1,0.6,0.3,1.2,0.5,1.6c0.3,0.4,0.7,0.7,1.3,1c0.6,0.3,1.2,0.4,2,0.4
			c0.7,0,1.2-0.1,1.7-0.3s0.9-0.5,1.1-0.8s0.4-0.7,0.4-1.1c0-0.4-0.1-0.8-0.4-1.1s-0.6-0.6-1.2-0.8c-0.3-0.1-1.1-0.3-2.3-0.6
			s-2-0.6-2.5-0.8c-0.6-0.3-1.1-0.7-1.4-1.2c-0.3-0.5-0.5-1-0.5-1.6c0-0.7,0.2-1.3,0.6-1.8s0.9-1,1.6-1.3s1.5-0.4,2.4-0.4
			c1,0,1.8,0.2,2.5,0.5c0.7,0.3,1.3,0.8,1.7,1.4s0.6,1.3,0.6,2l-1.6,0.1c-0.1-0.8-0.4-1.4-0.9-1.8c-0.5-0.4-1.3-0.6-2.2-0.6
			c-1,0-1.8,0.2-2.3,0.6c-0.5,0.4-0.7,0.8-0.7,1.4c0,0.5,0.2,0.8,0.5,1.1c0.3,0.3,1.2,0.6,2.6,0.9c1.4,0.3,2.3,0.6,2.9,0.8
			c0.8,0.3,1.3,0.8,1.7,1.3s0.5,1.1,0.5,1.8c0,0.7-0.2,1.3-0.6,1.9c-0.4,0.6-1,1.1-1.7,1.4c-0.7,0.3-1.6,0.5-2.5,0.5
			c-1.2,0-2.1-0.2-2.9-0.5c-0.8-0.3-1.4-0.9-1.9-1.5C240.3,672.6,240,671.8,240,670.9z"/>
		<path class="st0" d="M258.8,672.1l1.6,0.2c-0.3,1-0.7,1.7-1.4,2.2s-1.6,0.8-2.7,0.8c-1.4,0-2.4-0.4-3.2-1.3
			c-0.8-0.8-1.2-2-1.2-3.5c0-1.6,0.4-2.8,1.2-3.7s1.9-1.3,3.1-1.3c1.2,0,2.3,0.4,3.1,1.3s1.2,2,1.2,3.6c0,0.1,0,0.2,0,0.4h-7
			c0.1,1,0.3,1.8,0.9,2.4s1.2,0.8,2,0.8c0.6,0,1.1-0.2,1.5-0.5S258.6,672.7,258.8,672.1z M253.6,669.5h5.2c-0.1-0.8-0.3-1.4-0.6-1.8
			c-0.5-0.6-1.2-0.9-2-0.9c-0.7,0-1.3,0.2-1.8,0.7S253.6,668.7,253.6,669.5z"/>
		<path class="st0" d="M268.8,672.1l1.6,0.2c-0.3,1-0.7,1.7-1.4,2.2s-1.6,0.8-2.7,0.8c-1.4,0-2.4-0.4-3.2-1.3
			c-0.8-0.8-1.2-2-1.2-3.5c0-1.6,0.4-2.8,1.2-3.7s1.9-1.3,3.1-1.3c1.2,0,2.3,0.4,3.1,1.3s1.2,2,1.2,3.6c0,0.1,0,0.2,0,0.4h-7
			c0.1,1,0.3,1.8,0.9,2.4s1.2,0.8,2,0.8c0.6,0,1.1-0.2,1.5-0.5S268.6,672.7,268.8,672.1z M263.6,669.5h5.2c-0.1-0.8-0.3-1.4-0.6-1.8
			c-0.5-0.6-1.2-0.9-2-0.9c-0.7,0-1.3,0.2-1.8,0.7S263.7,668.7,263.6,669.5z"/>
		<path class="st0" d="M272.4,675.1v-12.9h1.6v7.3l3.7-3.8h2l-3.6,3.5l3.9,5.9h-2l-3.1-4.8l-1.1,1.1v3.7H272.4z"/>
		<path class="st0" d="M285.3,675.1l-5-12.9h1.8l3.3,9.4c0.3,0.8,0.5,1.5,0.7,2.1c0.2-0.7,0.4-1.4,0.7-2.1l3.5-9.4h1.7l-5,12.9
			H285.3z"/>
		<path class="st0" d="M298.8,672.1l1.6,0.2c-0.3,1-0.7,1.7-1.4,2.2s-1.6,0.8-2.7,0.8c-1.4,0-2.4-0.4-3.2-1.3
			c-0.8-0.8-1.2-2-1.2-3.5c0-1.6,0.4-2.8,1.2-3.7s1.9-1.3,3.1-1.3c1.2,0,2.3,0.4,3.1,1.3s1.2,2,1.2,3.6c0,0.1,0,0.2,0,0.4h-7
			c0.1,1,0.3,1.8,0.9,2.4s1.2,0.8,2,0.8c0.6,0,1.1-0.2,1.5-0.5S298.6,672.7,298.8,672.1z M293.6,669.5h5.2c-0.1-0.8-0.3-1.4-0.6-1.8
			c-0.5-0.6-1.2-0.9-2-0.9c-0.7,0-1.3,0.2-1.8,0.7S293.7,668.7,293.6,669.5z"/>
		<path class="st0" d="M308.5,671.7l1.6,0.2c-0.2,1.1-0.6,1.9-1.3,2.5c-0.7,0.6-1.6,0.9-2.6,0.9c-1.3,0-2.3-0.4-3.1-1.3
			c-0.8-0.8-1.2-2-1.2-3.6c0-1,0.2-1.9,0.5-2.6s0.8-1.3,1.5-1.7c0.7-0.4,1.4-0.6,2.2-0.6c1,0,1.8,0.3,2.5,0.8s1.1,1.2,1.2,2.2
			l-1.5,0.2c-0.1-0.6-0.4-1.1-0.8-1.4s-0.8-0.5-1.3-0.5c-0.8,0-1.4,0.3-1.9,0.9c-0.5,0.6-0.7,1.5-0.7,2.7c0,1.3,0.2,2.2,0.7,2.7
			s1.1,0.9,1.9,0.9c0.6,0,1.1-0.2,1.6-0.6S308.4,672.4,308.5,671.7z"/>
		<path class="st0" d="M314.9,673.7l0.2,1.4c-0.4,0.1-0.8,0.1-1.2,0.1c-0.6,0-1-0.1-1.3-0.3s-0.5-0.4-0.7-0.7s-0.2-0.9-0.2-1.9V667
			h-1.2v-1.2h1.2v-2.3l1.6-0.9v3.3h1.6v1.2h-1.6v5.5c0,0.5,0,0.7,0.1,0.9s0.1,0.2,0.3,0.3c0.1,0.1,0.3,0.1,0.5,0.1
			C314.4,673.7,314.6,673.7,314.9,673.7z"/>
		<path class="st0" d="M315.9,670.4c0-1.7,0.5-3,1.4-3.8c0.8-0.7,1.8-1,2.9-1c1.3,0,2.3,0.4,3.1,1.3s1.2,2,1.2,3.5
			c0,1.2-0.2,2.1-0.5,2.8c-0.4,0.7-0.9,1.2-1.6,1.6s-1.4,0.6-2.3,0.6c-1.3,0-2.4-0.4-3.2-1.3C316.3,673.2,315.9,672,315.9,670.4z
			 M317.5,670.4c0,1.2,0.3,2.1,0.8,2.7c0.5,0.6,1.2,0.9,2,0.9c0.8,0,1.4-0.3,2-0.9s0.8-1.5,0.8-2.7c0-1.2-0.3-2-0.8-2.6
			c-0.5-0.6-1.2-0.9-2-0.9c-0.8,0-1.4,0.3-2,0.9S317.5,669.2,317.5,670.4z"/>
		<path class="st0" d="M326.4,675.1v-9.3h1.4v1.4c0.4-0.7,0.7-1.1,1-1.3c0.3-0.2,0.6-0.3,1-0.3c0.5,0,1.1,0.2,1.6,0.5l-0.5,1.5
			c-0.4-0.2-0.8-0.3-1.2-0.3c-0.3,0-0.7,0.1-0.9,0.3s-0.5,0.5-0.6,0.9c-0.2,0.6-0.3,1.2-0.3,1.8v4.9H326.4z"/>
		<path class="st0" d="M332.6,675.1v-12.9h1.7v11.4h6.3v1.5H332.6z"/>
		<path class="st0" d="M341.9,670.4c0-1.7,0.5-3,1.4-3.8c0.8-0.7,1.8-1,2.9-1c1.3,0,2.3,0.4,3.1,1.3s1.2,2,1.2,3.5
			c0,1.2-0.2,2.1-0.5,2.8c-0.4,0.7-0.9,1.2-1.6,1.6s-1.4,0.6-2.3,0.6c-1.3,0-2.4-0.4-3.2-1.3C342.3,673.2,341.9,672,341.9,670.4z
			 M343.5,670.4c0,1.2,0.3,2.1,0.8,2.7c0.5,0.6,1.2,0.9,2,0.9c0.8,0,1.4-0.3,2-0.9s0.8-1.5,0.8-2.7c0-1.2-0.3-2-0.8-2.6
			c-0.5-0.6-1.2-0.9-2-0.9c-0.8,0-1.4,0.3-2,0.9S343.5,669.2,343.5,670.4z"/>
		<path class="st0" d="M352.2,675.8l1.5,0.2c0.1,0.5,0.2,0.8,0.5,1c0.4,0.3,0.9,0.4,1.6,0.4c0.7,0,1.3-0.1,1.7-0.4s0.7-0.7,0.8-1.2
			c0.1-0.3,0.1-1,0.1-2c-0.7,0.8-1.6,1.2-2.6,1.2c-1.3,0-2.3-0.5-3-1.4s-1.1-2-1.1-3.3c0-0.9,0.2-1.7,0.5-2.5
			c0.3-0.8,0.8-1.3,1.4-1.7s1.3-0.6,2.2-0.6c1.1,0,2,0.4,2.7,1.3v-1.1h1.5v8.1c0,1.5-0.1,2.5-0.4,3.1c-0.3,0.6-0.8,1.1-1.4,1.4
			c-0.6,0.4-1.4,0.5-2.4,0.5c-1.1,0-2-0.3-2.7-0.8C352.5,677.6,352.2,676.9,352.2,675.8z M353.5,670.2c0,1.2,0.2,2.1,0.7,2.7
			s1.1,0.8,1.8,0.8c0.7,0,1.3-0.3,1.8-0.8s0.7-1.4,0.7-2.6c0-1.1-0.3-2-0.8-2.6c-0.5-0.6-1.1-0.9-1.8-0.9c-0.7,0-1.3,0.3-1.8,0.9
			C353.7,668.3,353.5,669.1,353.5,670.2z"/>
		<path class="st0" d="M361.9,670.4c0-1.7,0.5-3,1.4-3.8c0.8-0.7,1.8-1,2.9-1c1.3,0,2.3,0.4,3.1,1.3s1.2,2,1.2,3.5
			c0,1.2-0.2,2.1-0.5,2.8c-0.4,0.7-0.9,1.2-1.6,1.6s-1.4,0.6-2.3,0.6c-1.3,0-2.4-0.4-3.2-1.3C362.3,673.2,361.9,672,361.9,670.4z
			 M363.5,670.4c0,1.2,0.3,2.1,0.8,2.7c0.5,0.6,1.2,0.9,2,0.9c0.8,0,1.4-0.3,2-0.9s0.8-1.5,0.8-2.7c0-1.2-0.3-2-0.8-2.6
			c-0.5-0.6-1.2-0.9-2-0.9c-0.8,0-1.4,0.3-2,0.9S363.5,669.2,363.5,670.4z"/>
		<path class="st0" d="M372.9,675.1v-1.8h1.8v1.8H372.9z"/>
		<path class="st0" d="M386.9,670.6l1.7,0.4c-0.4,1.4-1,2.5-1.9,3.2s-2.1,1.1-3.4,1.1c-1.4,0-2.5-0.3-3.4-0.8
			c-0.9-0.6-1.5-1.4-2-2.5c-0.5-1.1-0.7-2.2-0.7-3.5c0-1.3,0.3-2.5,0.8-3.5c0.5-1,1.2-1.8,2.2-2.3c0.9-0.5,2-0.8,3.1-0.8
			c1.3,0,2.4,0.3,3.3,1s1.5,1.6,1.8,2.8l-1.7,0.4c-0.3-0.9-0.7-1.6-1.3-2s-1.3-0.6-2.1-0.6c-1,0-1.8,0.2-2.5,0.7
			c-0.7,0.5-1.1,1.1-1.4,1.9c-0.3,0.8-0.4,1.6-0.4,2.5c0,1.1,0.2,2.1,0.5,2.9c0.3,0.8,0.8,1.4,1.5,1.8s1.4,0.6,2.2,0.6
			c1,0,1.8-0.3,2.4-0.8S386.7,671.6,386.9,670.6z"/>
		<path class="st0" d="M389.9,670.4c0-1.7,0.5-3,1.4-3.8c0.8-0.7,1.8-1,2.9-1c1.3,0,2.3,0.4,3.1,1.3s1.2,2,1.2,3.5
			c0,1.2-0.2,2.1-0.5,2.8c-0.4,0.7-0.9,1.2-1.6,1.6s-1.4,0.6-2.3,0.6c-1.3,0-2.4-0.4-3.2-1.3C390.3,673.2,389.9,672,389.9,670.4z
			 M391.5,670.4c0,1.2,0.3,2.1,0.8,2.7c0.5,0.6,1.2,0.9,2,0.9c0.8,0,1.4-0.3,2-0.9s0.8-1.5,0.8-2.7c0-1.2-0.3-2-0.8-2.6
			c-0.5-0.6-1.2-0.9-2-0.9c-0.8,0-1.4,0.3-2,0.9S391.5,669.2,391.5,670.4z"/>
		<path class="st0" d="M400.5,675.1v-9.3h1.4v1.3c0.3-0.5,0.7-0.8,1.2-1.1s1-0.4,1.7-0.4c0.7,0,1.3,0.1,1.7,0.4
			c0.4,0.3,0.8,0.7,0.9,1.2c0.7-1.1,1.7-1.6,2.9-1.6c0.9,0,1.6,0.3,2.1,0.8s0.7,1.3,0.7,2.4v6.4h-1.6v-5.9c0-0.6-0.1-1.1-0.2-1.4
			c-0.1-0.3-0.3-0.5-0.6-0.7s-0.6-0.3-0.9-0.3c-0.7,0-1.2,0.2-1.6,0.7c-0.4,0.4-0.7,1.1-0.7,2.1v5.4h-1.6V669c0-0.7-0.1-1.2-0.4-1.6
			s-0.7-0.5-1.3-0.5c-0.4,0-0.9,0.1-1.2,0.4c-0.4,0.2-0.7,0.6-0.8,1s-0.3,1.1-0.3,2v4.8H400.5z"/>
	</g>
</g>
<g id="Layer_2">
	<path class="st1" d="M208.3,250.9l41.9,98.4h-17.4l-6.7-16.4h-36.9l-6.7,16.4h-17.2L208.3,250.9z M220.5,318.4l-12.6-31.2
		l-12.8,31.2H220.5z"/>
	<g>
		<path class="st1" d="M263.7,262h41.5c19.4,0,31.4,12.8,31.4,29.9c0,12.6-8.8,22.6-20.4,26.3l21.8,31.1h-20.3l-18.2-27.5h-19.7
			v27.5h-16.1V262z M279.8,306.5H304c11.4,0,16.5-6.8,16.5-14.6c0-7.8-5.1-14.6-16.5-14.6h-24.2V306.5z"/>
		<polygon class="st1" points="360.3,262 427.2,262 427.2,277.3 376.4,277.3 376.4,296.9 411.8,296.9 411.8,312.2 376.4,312.2 
			376.4,334 427.2,334 427.2,349.3 360.3,349.3 		"/>
		<path class="st1" d="M447.5,262h36.8c29.4,0,46.8,20.6,46.8,43.6c0,23.1-18.1,43.6-46.8,43.6h-36.8V262z M463.6,334h20.7
			c18.8,0,30.7-12.9,30.7-28.3c0-15.4-11.9-28.3-30.7-28.3h-20.7V334z"/>
		<path class="st1" d="M591.9,260.2c26.1,0,46.8,19.9,46.8,45.4c0,25.6-20.7,45.4-46.8,45.4c-26.1,0-46.8-19.9-46.8-45.4
			C545.1,280.1,565.8,260.2,591.9,260.2 M591.9,335.8c15.7,0,29.9-13.2,29.9-30.1c0-16.9-14.2-30.1-29.9-30.1
			c-15.7,0-29.9,13.2-29.9,30.1C562,322.6,576.2,335.8,591.9,335.8"/>
		<polygon class="st1" points="151.7,333.8 88.1,333.8 88.1,245.5 72,245.5 72,350 151.7,350 		"/>
		<polyline class="st2" points="43.2,378.7 134.7,378.7 134.7,364.2 57.7,364.2 		"/>
		<polyline class="st1" points="15.1,406.9 115.1,406.9 115.1,392.4 29.6,392.4 		"/>
		<polygon class="st3" points="15.1,306.9 15.1,406.9 29.6,392.4 29.6,306.9 		"/>
		<polygon class="st4" points="43.2,378.8 57.7,364.3 57.7,274.5 43.2,274.5 		"/>
		<path class="st5" d="M366.9,396.9h-8.4v9.2H354v-23.9h12.8c4.3,0,7.9,3.2,7.8,7.4C374.6,393.8,371.1,396.9,366.9,396.9
			 M366.9,386.4h-8.4v6.3l8.3,0c1.7,0,3.4-1.6,3.4-3.1C370.2,388,368.5,386.4,366.9,386.4"/>
		<polygon class="st5" points="384.6,406.1 384.6,382.2 402.9,382.2 402.9,386.4 389.1,386.4 389.1,391.3 397.4,391.3 397.4,395.5 
			389.1,395.5 389.1,401.9 403.7,401.9 403.7,406.1 		"/>
		<polygon class="st5" points="424.6,386.4 424.6,406.1 420.1,406.1 420.1,386.4 412.9,386.4 412.9,382.2 431.9,382.2 431.9,386.4 
					"/>
		<path class="st5" d="M459.5,406.1l-5.1-9.2h-6.1v9.2h-4.5v-23.9h12.5c4.3,0,7.9,3.2,7.9,7.4c0,3.1-2,5.8-5.1,6.9l5.3,9.6H459.5z
			 M456.4,386.4h-8.1v6.3l8.1,0c1.7,0,3.4-1.6,3.4-3.1C459.7,388,458,386.4,456.4,386.4"/>
		<path class="st5" d="M496.2,394.1c0,6.2-4.1,12.3-10.7,12.3c-6.6,0-10.7-6.1-10.7-12.2c0-6.2,4.1-12.3,10.7-12.3
			C492.1,381.9,496.2,388,496.2,394.1L496.2,394.1z M491.7,394.1c0-3.9-2.1-8.1-6.2-8.1c-4.1,0-6.2,4.2-6.2,8.1
			c0,3.9,2.1,8.1,6.3,8.1C489.7,402.2,491.8,398,491.7,394.1L491.7,394.1z"/>
		<polygon class="st5" points="507.4,406.1 507.4,382.2 511.9,382.2 511.9,401.9 526.4,401.9 526.4,406.1 		"/>
		<polygon class="st5" points="538.4,406.1 538.4,382.2 556.6,382.2 556.6,386.4 542.8,386.4 542.8,391.3 551.1,391.3 551.1,395.5 
			542.8,395.5 542.8,401.9 557.4,401.9 557.4,406.1 		"/>
		<path class="st5" d="M590,396.4c0,5.5-4.4,10-10.4,10c-5.9,0-10.3-4.6-10.3-10v-14.1h4.5l0,14.5c0,3.1,2.8,5.5,5.9,5.5
			c3.1,0,5.8-2.4,5.8-5.6v-14.4h4.4L590,396.4L590,396.4z"/>
		<polygon class="st5" points="622.3,406.1 622.3,391.8 614.8,406.1 607.4,391.8 607.4,406.1 602.9,406.1 602.9,382.2 607.4,382.2 
			614.8,396.5 622.3,382.2 626.7,382.2 626.7,406.1 		"/>
		<path class="st5" d="M366.9,396.9h-8.4v9.2H354v-23.9h12.8c4.3,0,7.9,3.2,7.8,7.4C374.6,393.8,371.1,396.9,366.9,396.9
			 M366.9,386.4h-8.4v6.3l8.3,0c1.7,0,3.4-1.6,3.4-3.1C370.2,388,368.5,386.4,366.9,386.4"/>
		<polygon class="st5" points="384.6,406.1 384.6,382.2 402.9,382.2 402.9,386.4 389.1,386.4 389.1,391.3 397.4,391.3 397.4,395.5 
			389.1,395.5 389.1,401.9 403.7,401.9 403.7,406.1 		"/>
		<polygon class="st5" points="424.6,386.4 424.6,406.1 420.1,406.1 420.1,386.4 412.9,386.4 412.9,382.2 431.9,382.2 431.9,386.4 
					"/>
		<path class="st5" d="M459.5,406.1l-5.1-9.2h-6.1v9.2h-4.5v-23.9h12.5c4.3,0,7.9,3.2,7.9,7.4c0,3.1-2,5.8-5.1,6.9l5.3,9.6H459.5z
			 M456.4,386.4h-8.1v6.3l8.1,0c1.7,0,3.4-1.6,3.4-3.1C459.7,388,458,386.4,456.4,386.4"/>
		<path class="st5" d="M496.2,394.1c0,6.2-4.1,12.3-10.7,12.3c-6.6,0-10.7-6.1-10.7-12.2c0-6.2,4.1-12.3,10.7-12.3
			C492.1,381.9,496.2,388,496.2,394.1L496.2,394.1z M491.7,394.1c0-3.9-2.1-8.1-6.2-8.1c-4.1,0-6.2,4.2-6.2,8.1
			c0,3.9,2.1,8.1,6.3,8.1C489.7,402.2,491.8,398,491.7,394.1L491.7,394.1z"/>
		<polygon class="st5" points="507.4,406.1 507.4,382.2 511.9,382.2 511.9,401.9 526.4,401.9 526.4,406.1 		"/>
		<polygon class="st5" points="538.4,406.1 538.4,382.2 556.6,382.2 556.6,386.4 542.8,386.4 542.8,391.3 551.1,391.3 551.1,395.5 
			542.8,395.5 542.8,401.9 557.4,401.9 557.4,406.1 		"/>
		<path class="st5" d="M590,396.4c0,5.5-4.4,10-10.4,10c-5.9,0-10.3-4.6-10.3-10v-14.1h4.5l0,14.5c0,3.1,2.8,5.5,5.9,5.5
			c3.1,0,5.8-2.4,5.8-5.6v-14.4h4.4L590,396.4L590,396.4z"/>
		<polygon class="st5" points="622.3,406.1 622.3,391.8 614.8,406.1 607.4,391.8 607.4,406.1 602.9,406.1 602.9,382.2 607.4,382.2 
			614.8,396.5 622.3,382.2 626.7,382.2 626.7,406.1 		"/>
	</g>
</g>
</svg>
