<?xml version="1.0" encoding="UTF-8"?>
<svg xmlns="http://www.w3.org/2000/svg" xmlns:xlink="http://www.w3.org/1999/xlink" width="564.31pt" height="198.53pt" viewBox="0 0 564.31 198.53" version="1.1">
<defs>
<clipPath id="clip1">
  <path d="M 98 80 L 160 80 L 160 198.53125 L 98 198.53125 Z M 98 80 "/>
</clipPath>
<clipPath id="clip2">
  <path d="M 68 0 L 82 0 L 82 198.53125 L 68 198.53125 Z M 68 0 "/>
</clipPath>
<clipPath id="clip3">
  <path d="M 87 0 L 101 0 L 101 198.53125 L 87 198.53125 Z M 87 0 "/>
</clipPath>
<clipPath id="clip4">
  <path d="M 0 80 L 61 80 L 61 198.53125 L 0 198.53125 Z M 0 80 "/>
</clipPath>
<clipPath id="clip5">
  <path d="M 105 80 L 166 80 L 166 198.53125 L 105 198.53125 Z M 105 80 "/>
</clipPath>
<clipPath id="clip6">
  <path d="M 553 81 L 564.308594 81 L 564.308594 141 L 553 141 Z M 553 81 "/>
</clipPath>
</defs>
<g id="surface1">
<g clip-path="url(#clip1)" clip-rule="nonzero">
<path style=" stroke:none;fill-rule:evenodd;fill:rgb(100%,100%,100%);fill-opacity:1;" d="M 123.011719 81.371094 C 110.367188 82.785156 100.355469 91.84375 99.398438 104.988281 C 97.503906 131.003906 100.824219 171.457031 99.398438 198.476563 L 112.800781 198.476563 L 112.800781 158.59375 C 112.800781 154.511719 112.210938 148.914063 113.441406 145.828125 C 116.402344 138.355469 128.347656 140.402344 138.964844 140.402344 L 159.703125 140.402344 L 159.703125 81.371094 C 146.949219 82.390625 135.195313 80.011719 123.011719 81.371094 "/>
</g>
<g clip-path="url(#clip2)" clip-rule="nonzero">
<path style=" stroke:none;fill-rule:evenodd;fill:rgb(0.799561%,25.498962%,36.499023%);fill-opacity:1;" d="M 68.765625 0.00390625 L 81.527344 0.00390625 L 81.527344 198.476563 C 77.378906 198.265625 72.382813 198.898438 68.765625 198.15625 "/>
</g>
<g clip-path="url(#clip3)" clip-rule="nonzero">
<path style=" stroke:none;fill-rule:evenodd;fill:rgb(0.799561%,25.498962%,36.499023%);fill-opacity:1;" d="M 87.511719 0.00390625 L 100.277344 0.00390625 L 100.277344 198.476563 C 96.128906 198.265625 91.128906 198.898438 87.511719 198.15625 "/>
</g>
<g clip-path="url(#clip4)" clip-rule="nonzero">
<path style=" stroke:none;fill-rule:evenodd;fill:rgb(7.099915%,52.49939%,66.299438%);fill-opacity:1;" d="M 0 81.371094 C 12.828125 82.535156 24.765625 79.816406 37.015625 81.371094 C 46.976563 82.636719 56.566406 89.25 59.347656 98.921875 C 61.195313 105.320313 60.308594 114.550781 60.308594 122.851563 L 60.308594 198.476563 C 56.050781 198.265625 50.949219 198.902344 47.226563 198.15625 L 47.226563 167.207031 C 47.226563 157.949219 49.21875 144.386719 42.117188 141.039063 C 37.261719 138.753906 28.167969 140.402344 21.378906 140.402344 L 0 140.402344 "/>
</g>
<g clip-path="url(#clip5)" clip-rule="nonzero">
<path style=" stroke:none;fill-rule:evenodd;fill:rgb(7.099915%,52.49939%,66.299438%);fill-opacity:1;" d="M 165.929688 81.371094 L 165.929688 140.402344 L 145.191406 140.402344 C 134.574219 140.402344 122.628906 138.355469 119.664063 145.828125 C 118.4375 148.914063 119.023438 154.511719 119.023438 158.59375 L 119.023438 198.476563 L 105.621094 198.476563 C 107.050781 171.457031 103.726563 131.003906 105.621094 104.988281 C 106.578125 91.84375 116.59375 82.785156 129.234375 81.371094 C 141.421875 80.011719 153.175781 82.390625 165.929688 81.371094 "/>
</g>
<path style=" stroke:none;fill-rule:evenodd;fill:rgb(0.799561%,25.498962%,36.499023%);fill-opacity:1;" d="M 234.6875 81.691406 L 245.539063 81.691406 L 245.539063 140.085938 L 234.371094 140.085938 C 234.582031 120.726563 233.945313 100.519531 234.6875 81.691406 "/>
<g clip-path="url(#clip6)" clip-rule="nonzero">
<path style=" stroke:none;fill-rule:evenodd;fill:rgb(0.799561%,25.498962%,36.499023%);fill-opacity:1;" d="M 564.308594 81.691406 L 564.308594 140.085938 C 560.6875 139.875 556.226563 140.507813 553.136719 139.765625 L 553.136719 81.691406 "/>
</g>
<path style=" stroke:none;fill-rule:evenodd;fill:rgb(0.799561%,25.498962%,36.499023%);fill-opacity:1;" d="M 458.691406 85.199219 L 458.691406 96.6875 L 465.710938 96.6875 L 465.710938 104.988281 L 459.003906 104.988281 C 458.453125 112.878906 458.507813 122.921875 459.003906 130.832031 C 460.316406 132.070313 463.160156 131.78125 465.710938 131.785156 C 465.609375 134.660156 465.859375 138.503906 465.710938 140.402344 C 457.214844 140.410156 448.839844 141.40625 447.519531 134.339844 C 446.097656 126.734375 448.585938 113.757813 447.519531 105.304688 C 446.128906 104.566406 443.378906 105.195313 441.457031 104.988281 L 441.457031 96.6875 L 447.519531 96.6875 L 447.519531 85.199219 "/>
<path style=" stroke:none;fill-rule:evenodd;fill:rgb(0.799561%,25.498962%,36.499023%);fill-opacity:1;" d="M 200.230469 130.832031 C 216.40625 139.386719 220.644531 101.738281 202.144531 105.941406 C 193.507813 107.90625 191.984375 126.46875 200.230469 130.832031 M 195.441406 134.660156 L 195.441406 156.992188 L 183.957031 156.992188 L 183.957031 96.6875 L 194.808594 96.6875 L 194.808594 102.75 C 197.96875 98.351563 202.667969 94.867188 210.4375 95.726563 C 229.933594 97.894531 232.335938 138.113281 211.078125 141.039063 C 203.027344 142.148438 198.453125 139.25 195.441406 134.660156 "/>
<path style=" stroke:none;fill-rule:evenodd;fill:rgb(0.799561%,25.498962%,36.499023%);fill-opacity:1;" d="M 341.585938 110.085938 L 331.054688 110.085938 C 329.617188 108.882813 330.167969 106.640625 328.183594 105.304688 C 324.398438 102.753906 315.691406 104.109375 316.054688 108.496094 C 316.472656 113.4375 332.484375 113.453125 337.753906 116.789063 C 339.914063 118.15625 342.039063 120.675781 342.542969 122.214844 C 350.195313 145.59375 302.363281 148.226563 303.296875 126.363281 L 314.460938 126.363281 C 315.738281 127.90625 315.367188 129.808594 317.335938 131.148438 C 321.816406 134.210938 331.707031 132.460938 331.695313 128.277344 C 331.683594 124.402344 324.710938 123.859375 321.480469 123.171875 C 314.863281 121.765625 307.707031 120.046875 305.527344 114.878906 C 298.449219 98.085938 325.355469 89.722656 337.117188 99.5625 C 339.816406 101.820313 341.257813 104.882813 341.585938 110.085938 "/>
<path style=" stroke:none;fill-rule:evenodd;fill:rgb(0.799561%,25.498962%,36.499023%);fill-opacity:1;" d="M 374.769531 131.46875 C 384.414063 128.359375 384.136719 102.457031 369.023438 105.941406 C 357.550781 108.59375 359.980469 136.234375 374.769531 131.46875 M 362.644531 134.976563 C 361.902344 141.679688 362.539063 149.761719 362.324219 156.992188 L 351.160156 156.992188 L 351.160156 96.6875 L 362.007813 96.6875 L 362.007813 102.433594 C 363.773438 101.046875 364.867188 98.867188 366.789063 97.644531 C 373.777344 93.222656 383.039063 96.441406 386.894531 100.199219 C 398.828125 111.832031 392.546875 139.101563 377.960938 141.039063 C 371.59375 141.886719 364.863281 139.605469 362.644531 134.976563 "/>
<path style=" stroke:none;fill-rule:evenodd;fill:rgb(0.799561%,25.498962%,36.499023%);fill-opacity:1;" d="M 409.230469 114.238281 C 414.902344 114.265625 422.15625 114.203125 426.78125 114.238281 C 427.617188 102.367188 408.355469 102.285156 409.230469 114.238281 M 438.585938 121.578125 L 408.914063 121.578125 C 407.339844 132.003906 422.945313 135.722656 426.460938 127.320313 L 437.949219 127.320313 C 436.6875 140.253906 416.433594 144.9375 406.039063 138.167969 C 393.894531 130.261719 395.179688 107.042969 404.761719 99.5625 C 411.878906 94.007813 427.363281 94.488281 433.480469 101.792969 C 437.347656 106.402344 438.554688 112.621094 438.585938 121.578125 "/>
<path style=" stroke:none;fill-rule:evenodd;fill:rgb(0.799561%,25.498962%,36.499023%);fill-opacity:1;" d="M 498.257813 95.730469 L 498.257813 107.21875 C 479.21875 103.714844 485.570313 125.585938 484.535156 140.082031 L 473.050781 140.082031 L 473.050781 96.6875 L 483.898438 96.6875 L 483.898438 103.707031 C 486.605469 100.25 489.648438 94.355469 498.257813 95.730469 "/>
<path style=" stroke:none;fill-rule:evenodd;fill:rgb(0.799561%,25.498962%,36.499023%);fill-opacity:1;" d="M 518.039063 130.832031 C 536.394531 138.566406 539.050781 101.710938 520.269531 105.621094 C 510.683594 107.625 509.15625 127.085938 518.039063 130.832031 M 518.996094 96.050781 C 531.210938 94.5 539.488281 100.8125 542.289063 106.261719 C 545.917969 113.316406 545.742188 123.796875 542.289063 130.511719 C 536.125 142.507813 513.679688 145.949219 504.636719 133.0625 C 499.539063 125.804688 499.667969 111.3125 504 104.664063 C 506.585938 100.691406 511.382813 97.015625 518.996094 96.050781 "/>
<path style=" stroke:none;fill-rule:evenodd;fill:rgb(0.799561%,25.498962%,36.499023%);fill-opacity:1;" d="M 267.878906 96.6875 C 269.753906 106.210938 263.738281 128.222656 272.027344 131.148438 C 276.082031 132.582031 280.976563 131.074219 282.875 127.636719 C 286.976563 120.203125 282.433594 106.871094 284.148438 96.6875 L 295.636719 96.6875 L 295.636719 140.082031 L 284.46875 140.082031 L 284.46875 134.660156 C 283.046875 135.714844 281.578125 138.007813 279.683594 139.125 C 273.359375 142.851563 264.078125 141.351563 260.21875 137.210938 C 253.125 129.609375 258.351563 110.128906 256.710938 97.644531 L 256.710938 96.6875 "/>
</g>
</svg>
