<?xml version="1.0" encoding="UTF-8" standalone="no"?>
<!-- Created with Inkscape (http://www.inkscape.org/) -->

<svg
   xmlns:dc="http://purl.org/dc/elements/1.1/"
   xmlns:cc="http://creativecommons.org/ns#"
   xmlns:rdf="http://www.w3.org/1999/02/22-rdf-syntax-ns#"
   xmlns:svg="http://www.w3.org/2000/svg"
   xmlns="http://www.w3.org/2000/svg"
   xmlns:sodipodi="http://sodipodi.sourceforge.net/DTD/sodipodi-0.dtd"
   xmlns:inkscape="http://www.inkscape.org/namespaces/inkscape"
   width="39.564865mm"
   height="32.69849mm"
   viewBox="0 0 39.564865 32.69849"
   version="1.1"
   id="svg8"
   sodipodi:docname="repsol.svg"
   inkscape:version="0.92.3 (2405546, 2018-03-11)">
  <defs
     id="defs2">
    <clipPath
       id="clipPath883"
       clipPathUnits="userSpaceOnUse">
      <path
         inkscape:connector-curvature="0"
         id="path881"
         d="M 0,841.89 H 595.276 V 0 H 0 Z" />
    </clipPath>
    <clipPath
       id="clipPath909"
       clipPathUnits="userSpaceOnUse">
      <path
         inkscape:connector-curvature="0"
         id="path907"
         d="M 0,0 H 595.275 V 841.89 H 0 Z" />
    </clipPath>
    <clipPath
       id="clipPath917"
       clipPathUnits="userSpaceOnUse">
      <path
         inkscape:connector-curvature="0"
         id="path915"
         d="M -1.0002,842.89 H 596.276 V -1.00012 H -1.0002 Z" />
    </clipPath>
    <clipPath
       id="clipPath921"
       clipPathUnits="userSpaceOnUse">
      <path
         inkscape:connector-curvature="0"
         id="path919"
         d="M 0,0 H 595.276 V 841.89 H 0 Z" />
    </clipPath>
    <clipPath
       id="clipPath925"
       clipPathUnits="userSpaceOnUse">
      <path
         inkscape:connector-curvature="0"
         id="path923"
         d="M 1305.885,0 H 710.61 v 841.89 h 595.275 z" />
    </clipPath>
    <linearGradient
       id="linearGradient935"
       spreadMethod="pad"
       gradientTransform="matrix(0.3896248,-2.2096884,2.2096884,0.3896248,454.96403,91.273964)"
       gradientUnits="userSpaceOnUse"
       y2="0"
       x2="1"
       y1="0"
       x1="0">
      <stop
         id="stop931"
         offset="0"
         style="stop-opacity:1;stop-color:#d75e15" />
      <stop
         id="stop933"
         offset="1"
         style="stop-opacity:1;stop-color:#f5aa06" />
    </linearGradient>
    <linearGradient
       id="linearGradient947"
       spreadMethod="pad"
       gradientTransform="matrix(22.722454,-22.722454,22.722454,22.722454,463.67008,108.68943)"
       gradientUnits="userSpaceOnUse"
       y2="0"
       x2="1"
       y1="0"
       x1="0">
      <stop
         id="stop941"
         offset="0"
         style="stop-opacity:1;stop-color:#fece56" />
      <stop
         id="stop943"
         offset="0.19632"
         style="stop-opacity:1;stop-color:#f5a906" />
      <stop
         id="stop945"
         offset="1"
         style="stop-opacity:1;stop-color:#e8600d" />
    </linearGradient>
    <clipPath
       id="clipPath951"
       clipPathUnits="userSpaceOnUse">
      <path
         inkscape:connector-curvature="0"
         id="path949"
         d="M 0,0 H 595.276 V 841.89 H 0 Z" />
    </clipPath>
    <linearGradient
       id="linearGradient963"
       spreadMethod="pad"
       gradientTransform="matrix(37.543297,-13.66464,13.66464,37.543297,460.40507,95.244156)"
       gradientUnits="userSpaceOnUse"
       y2="0"
       x2="1"
       y1="0"
       x1="0">
      <stop
         id="stop957"
         offset="0"
         style="stop-opacity:1;stop-color:#a6a4a1" />
      <stop
         id="stop959"
         offset="0.288345"
         style="stop-opacity:1;stop-color:#ffffff" />
      <stop
         id="stop961"
         offset="1"
         style="stop-opacity:1;stop-color:#a6a4a1" />
    </linearGradient>
    <clipPath
       id="clipPath967"
       clipPathUnits="userSpaceOnUse">
      <path
         inkscape:connector-curvature="0"
         id="path965"
         d="m 473.175,84.82 c -0.016,0 -2.008,-0.078 -2.069,-0.079 v 0 c -4.661,-0.187 -8.609,-0.484 -11.827,-0.799 v 0 h -10e-4 c 0.86,-2.854 2.606,-5.232 5.017,-6.844 v 0 c 2.188,-1.472 4.911,-2.306 8.011,-2.306 v 0 c 6.877,0 13.671,4.144 17.536,10.065 v 0 c -1.48,0.017 -5.184,0.044 -8.916,0.044 v 0 c -2.923,0 -5.856,-0.021 -7.751,-0.081" />
    </clipPath>
    <clipPath
       id="clipPath971"
       clipPathUnits="userSpaceOnUse">
      <path
         inkscape:connector-curvature="0"
         id="path969"
         d="m 459.278,84.9009 h 30.564 V 74.7916 h -30.564 z" />
    </clipPath>
    <clipPath
       id="clipPath975"
       clipPathUnits="userSpaceOnUse">
      <path
         inkscape:connector-curvature="0"
         id="path973"
         d="m 459.278,84.9009 h 30.563 v -10.108 h -30.563 z" />
    </clipPath>
    <linearGradient
       id="linearGradient987"
       spreadMethod="pad"
       gradientTransform="matrix(0,10.109301,-10.109301,0,474.55961,74.792847)"
       gradientUnits="userSpaceOnUse"
       y2="0"
       x2="1"
       y1="0"
       x1="0">
      <stop
         id="stop981"
         offset="0"
         style="stop-opacity:1;stop-color:#706f6f" />
      <stop
         id="stop983"
         offset="0.496933"
         style="stop-opacity:1;stop-color:#000000" />
      <stop
         id="stop985"
         offset="1"
         style="stop-opacity:1;stop-color:#ffffff" />
    </linearGradient>
    <mask
       id="mask989"
       height="1"
       width="1"
       y="0"
       x="0"
       maskUnits="userSpaceOnUse">
      <g
         id="g1013">
        <g
           id="g1011"
           clip-path="url(#clipPath971)">
          <path
             inkscape:connector-curvature="0"
             id="path991"
             style="fill:#000000;fill-opacity:1;fill-rule:nonzero;stroke:none"
             d="m 459.278,84.901 h 30.563 V 74.793 h -30.563 z" />
          <g
             id="g1009">
            <g
               id="g993" />
            <g
               id="g1007">
              <g
                 id="g1005"
                 clip-path="url(#clipPath975)">
                <g
                   id="g1003">
                  <g
                     id="g1001">
                    <g
                       id="g999">
                      <g
                         id="g997">
                        <path
                           inkscape:connector-curvature="0"
                           id="path995"
                           style="fill:url(#linearGradient987);stroke:none"
                           d="M 489.841,84.901 H 459.278 V 74.793 h 30.563 z" />
                      </g>
                    </g>
                  </g>
                </g>
              </g>
            </g>
          </g>
        </g>
      </g>
    </mask>
    <clipPath
       id="clipPath1017"
       clipPathUnits="userSpaceOnUse">
      <path
         inkscape:connector-curvature="0"
         id="path1015"
         d="m 459.278,84.9009 h 30.564 V 74.7916 h -30.564 z" />
    </clipPath>
    <linearGradient
       id="linearGradient1029"
       spreadMethod="pad"
       gradientTransform="matrix(0,10.109301,-10.109301,0,474.55964,74.791565)"
       gradientUnits="userSpaceOnUse"
       y2="0"
       x2="1"
       y1="0"
       x1="0">
      <stop
         id="stop1023"
         offset="0"
         style="stop-opacity:1;stop-color:#891725" />
      <stop
         id="stop1025"
         offset="0.496933"
         style="stop-opacity:1;stop-color:#b3182e" />
      <stop
         id="stop1027"
         offset="1"
         style="stop-opacity:1;stop-color:#891725" />
    </linearGradient>
    <clipPath
       id="clipPath1033"
       clipPathUnits="userSpaceOnUse">
      <path
         inkscape:connector-curvature="0"
         id="path1031"
         d="m 462.623,99.4 c 2.84,0.271 6.552,0.482 10.187,0.542 v 0 c 0.711,0.016 2.074,0.305 2.838,1.438 v 0 c 1.427,2.119 2.83,4.252 4.819,4.963 v 0 c 0.037,0.014 0.07,0.029 0.106,0.049 v 0 c 3.031,1.154 7.038,-1.663 9.806,-6.541 v 0 h 1.922 c -1.793,5.135 -6.548,8.599 -12.845,8.599 v 0 c -6.483,0 -12.882,-3.681 -16.833,-9.05" />
    </clipPath>
    <clipPath
       id="clipPath1037"
       clipPathUnits="userSpaceOnUse">
      <path
         inkscape:connector-curvature="0"
         id="path1035"
         d="m 459.713,117.987 h 35.493 V 89.8658 h -35.493 z" />
    </clipPath>
    <clipPath
       id="clipPath1041"
       clipPathUnits="userSpaceOnUse">
      <path
         inkscape:connector-curvature="0"
         id="path1039"
         d="m 459.713,117.987 h 35.493 V 89.8659 h -35.493 z" />
    </clipPath>
    <linearGradient
       id="linearGradient1053"
       spreadMethod="pad"
       gradientTransform="matrix(26.072779,-9.4897127,9.4897127,26.072779,465.81693,108.16394)"
       gradientUnits="userSpaceOnUse"
       y2="0"
       x2="1"
       y1="0"
       x1="0">
      <stop
         id="stop1047"
         offset="0"
         style="stop-opacity:1;stop-color:#ffffff" />
      <stop
         id="stop1049"
         offset="0.0858917"
         style="stop-opacity:1;stop-color:#ffffff" />
      <stop
         id="stop1051"
         offset="1"
         style="stop-opacity:1;stop-color:#282727" />
    </linearGradient>
    <mask
       id="mask1055"
       height="1"
       width="1"
       y="0"
       x="0"
       maskUnits="userSpaceOnUse">
      <g
         id="g1079">
        <g
           id="g1077"
           clip-path="url(#clipPath1037)">
          <path
             inkscape:connector-curvature="0"
             id="path1057"
             style="fill:#000000;fill-opacity:1;fill-rule:nonzero;stroke:none"
             d="m 459.713,117.987 h 35.493 V 89.866 h -35.493 z" />
          <g
             id="g1075">
            <g
               id="g1059" />
            <g
               id="g1073">
              <g
                 id="g1071"
                 clip-path="url(#clipPath1041)">
                <g
                   id="g1069">
                  <g
                     id="g1067">
                    <g
                       id="g1065">
                      <g
                         id="g1063">
                        <path
                           inkscape:connector-curvature="0"
                           id="path1061"
                           style="fill:url(#linearGradient1053);stroke:none"
                           d="m 459.713,100.463 29.115,-10.597 6.378,17.524 -29.112,10.597 z" />
                      </g>
                    </g>
                  </g>
                </g>
              </g>
            </g>
          </g>
        </g>
      </g>
    </mask>
    <clipPath
       id="clipPath1083"
       clipPathUnits="userSpaceOnUse">
      <path
         inkscape:connector-curvature="0"
         id="path1081"
         d="m 459.713,117.987 h 35.493 V 89.8658 h -35.493 z" />
    </clipPath>
    <linearGradient
       id="linearGradient1095"
       spreadMethod="pad"
       gradientTransform="matrix(26.072779,-9.4897127,9.4897127,26.072779,465.80424,108.16904)"
       gradientUnits="userSpaceOnUse"
       y2="0"
       x2="1"
       y1="0"
       x1="0">
      <stop
         id="stop1089"
         offset="0"
         style="stop-opacity:1;stop-color:#fece56" />
      <stop
         id="stop1091"
         offset="0.0858917"
         style="stop-opacity:1;stop-color:#fece56" />
      <stop
         id="stop1093"
         offset="1"
         style="stop-opacity:1;stop-color:#f1990d" />
    </linearGradient>
    <clipPath
       id="clipPath1099"
       clipPathUnits="userSpaceOnUse">
      <path
         inkscape:connector-curvature="0"
         id="path1097"
         d="m 475.927,84.874 c -0.702,-0.582 -1.52,-1.433 -1.884,-2.205 v 0 c -2.512,-4.239 -3.381,-8.388 -11.124,-2.047 v 0 c 0,0 -1.233,0.11 -2.074,-0.05 v 0 c 0.855,-1.297 1.939,-2.412 3.217,-3.315 v 0 c 0.09,-0.06 0.172,-0.113 0.238,-0.159 v 0 c 0.144,-0.106 0.293,-0.193 0.438,-0.285 v 0 c 2.106,-1.288 4.673,-2.021 7.568,-2.021 v 0 c 6.877,0 13.671,4.144 17.536,10.065 v 0 c -0.66,0.003 -1.747,0.017 -3.076,0.023 v 0 c -1.69,0.01 -3.805,0.015 -5.895,0.015 v 0 c -1.745,0 -3.479,-0.002 -4.944,-0.021" />
    </clipPath>
    <clipPath
       id="clipPath1103"
       clipPathUnits="userSpaceOnUse">
      <path
         inkscape:connector-curvature="0"
         id="path1101"
         d="m 455.744,98.8326 h 39.2 V 60.3482 h -39.2 z" />
    </clipPath>
    <clipPath
       id="clipPath1107"
       clipPathUnits="userSpaceOnUse">
      <path
         inkscape:connector-curvature="0"
         id="path1105"
         d="m 455.744,98.8329 h 39.2 v -38.484 h -39.2 z" />
    </clipPath>
    <linearGradient
       id="linearGradient1121"
       spreadMethod="pad"
       gradientTransform="matrix(12.991242,17.239964,-17.239964,12.991242,470.12895,72.6698)"
       gradientUnits="userSpaceOnUse"
       y2="0"
       x2="1"
       y1="0"
       x1="0">
      <stop
         id="stop1113"
         offset="0"
         style="stop-opacity:1;stop-color:#000000" />
      <stop
         id="stop1115"
         offset="0.0122681"
         style="stop-opacity:1;stop-color:#000000" />
      <stop
         id="stop1117"
         offset="0.638031"
         style="stop-opacity:1;stop-color:#c6c6c6" />
      <stop
         id="stop1119"
         offset="1"
         style="stop-opacity:1;stop-color:#ffffff" />
    </linearGradient>
    <mask
       id="mask1123"
       height="1"
       width="1"
       y="0"
       x="0"
       maskUnits="userSpaceOnUse">
      <g
         id="g1147">
        <g
           id="g1145"
           clip-path="url(#clipPath1103)">
          <path
             inkscape:connector-curvature="0"
             id="path1125"
             style="fill:#000000;fill-opacity:1;fill-rule:nonzero;stroke:none"
             d="m 455.744,98.833 h 39.2 V 60.349 h -39.2 z" />
          <g
             id="g1143">
            <g
               id="g1127" />
            <g
               id="g1141">
              <g
                 id="g1139"
                 clip-path="url(#clipPath1107)">
                <g
                   id="g1137">
                  <g
                     id="g1135">
                    <g
                       id="g1133">
                      <g
                         id="g1131">
                        <path
                           inkscape:connector-curvature="0"
                           id="path1129"
                           style="fill:url(#linearGradient1121);stroke:none"
                           d="m 455.744,78.126 23.599,-17.777 15.601,20.705 -23.6,17.779 z" />
                      </g>
                    </g>
                  </g>
                </g>
              </g>
            </g>
          </g>
        </g>
      </g>
    </mask>
    <clipPath
       id="clipPath1151"
       clipPathUnits="userSpaceOnUse">
      <path
         inkscape:connector-curvature="0"
         id="path1149"
         d="m 455.744,98.8326 h 39.2 V 60.3482 h -39.2 z" />
    </clipPath>
    <linearGradient
       id="linearGradient1165"
       spreadMethod="pad"
       gradientTransform="matrix(12.991242,17.239964,-17.239964,12.991242,470.13541,72.678635)"
       gradientUnits="userSpaceOnUse"
       y2="0"
       x2="1"
       y1="0"
       x1="0">
      <stop
         id="stop1157"
         offset="0"
         style="stop-opacity:1;stop-color:#df0637" />
      <stop
         id="stop1159"
         offset="0.0122681"
         style="stop-opacity:1;stop-color:#df0637" />
      <stop
         id="stop1161"
         offset="0.638031"
         style="stop-opacity:1;stop-color:#941823" />
      <stop
         id="stop1163"
         offset="1"
         style="stop-opacity:1;stop-color:#961824" />
    </linearGradient>
    <linearGradient
       id="linearGradient1177"
       spreadMethod="pad"
       gradientTransform="matrix(0,1.7069999,-1.7069999,0,493.72419,83.148964)"
       gradientUnits="userSpaceOnUse"
       y2="0"
       x2="1"
       y1="0"
       x1="0">
      <stop
         id="stop1171"
         offset="0"
         style="stop-opacity:1;stop-color:#d7d8d7" />
      <stop
         id="stop1173"
         offset="0.00613403"
         style="stop-opacity:1;stop-color:#d7d8d7" />
      <stop
         id="stop1175"
         offset="1"
         style="stop-opacity:1;stop-color:#808381" />
    </linearGradient>
    <clipPath
       id="clipPath1181"
       clipPathUnits="userSpaceOnUse">
      <path
         inkscape:connector-curvature="0"
         id="path1179"
         d="M 0,0 H 595.276 V 841.89 H 0 Z" />
    </clipPath>
    <clipPath
       id="clipPath1185"
       clipPathUnits="userSpaceOnUse">
      <path
         inkscape:connector-curvature="0"
         id="path1183"
         d="M 0,0 H 595.274 V 841.89 H 0 Z" />
    </clipPath>
  </defs>
  <sodipodi:namedview
     id="base"
     pagecolor="#00ffff"
     bordercolor="#666666"
     borderopacity="1.0"
     inkscape:pageopacity="0"
     inkscape:pageshadow="2"
     inkscape:zoom="0.64"
     inkscape:cx="770.51459"
     inkscape:cy="162.78233"
     inkscape:document-units="mm"
     inkscape:current-layer="layer1"
     showgrid="false"
     inkscape:window-width="1920"
     inkscape:window-height="1001"
     inkscape:window-x="-9"
     inkscape:window-y="-9"
     inkscape:window-maximized="1"
     fit-margin-top="0"
     fit-margin-left="0"
     fit-margin-right="0"
     fit-margin-bottom="0" />
  <metadata
     id="metadata5">
    <rdf:RDF>
      <cc:Work
         rdf:about="">
        <dc:format>image/svg+xml</dc:format>
        <dc:type
           rdf:resource="http://purl.org/dc/dcmitype/StillImage" />
        <dc:title></dc:title>
      </cc:Work>
    </rdf:RDF>
  </metadata>
  <g
     inkscape:label="Layer 1"
     inkscape:groupmode="layer"
     id="layer1"
     transform="translate(-119.12,-222.06015)">
    <g
       transform="matrix(0.64060467,0,0,-0.64060467,-165.49095,291.53373)"
       inkscape:label="repsol"
       id="g873">
      <g
         id="g875">
        <g
           id="g877">
          <g
             clip-path="url(#clipPath883)"
             id="g879" />
        </g>
      </g>
      <g
         id="g903">
        <g
           clip-path="url(#clipPath909)"
           id="g905">
          <g
             id="g911">
            <g
               id="g913" />
            <g
               id="g1467">
              <g
                 id="g1465"
                 clip-path="url(#clipPath917)">
                <g
                   id="g1201">
                  <g
                     id="g1199"
                     clip-path="url(#clipPath921)">
                    <g
                       id="g1197">
                      <g
                         id="g1195"
                         clip-path="url(#clipPath925)">
                        <g
                           id="g1189"
                           transform="translate(1393.4723,167.5381)">
                          <path
                             inkscape:connector-curvature="0"
                             id="path1187"
                             style="fill:#eeeae7;fill-opacity:1;fill-rule:nonzero;stroke:none"
                             d="m 0,0 c -127.56,95.3 -343.277,129.255 -502.622,129.255 h -430.187 v 34.461 h 430.187 c 95.425,0 192.184,-11.001 279.813,-31.813 101.007,-23.988 182.91,-59.079 243.434,-104.296 z" />
                        </g>
                        <path
                           inkscape:connector-curvature="0"
                           id="path1191"
                           style="fill:#f8aa22;fill-opacity:1;fill-rule:nonzero;stroke:none"
                           d="M 1398.768,296.793 H 460.664 v 34.461 h 938.104 z" />
                        <path
                           inkscape:connector-curvature="0"
                           id="path1193"
                           style="fill:#e0dbd5;fill-opacity:1;fill-rule:nonzero;stroke:none"
                           d="m 460.664,296.792 h 276.943 v 34.461 H 460.664 Z" />
                      </g>
                    </g>
                  </g>
                </g>
                <g
                   id="g1211">
                  <g
                     id="g1209">
                    <g
                       id="g1207">
                      <g
                         id="g1205">
                        <path
                           inkscape:connector-curvature="0"
                           id="path1203"
                           style="fill:url(#linearGradient935);stroke:none"
                           d="m 459.012,91.622 c -0.965,-0.092 -2.491,-0.213 -3.616,-0.358 v 0 c -1.969,-0.255 -3.754,-0.517 -3.909,-0.694 v 0 c -0.402,-0.483 2.294,-0.836 6.404,-0.89 v 0 c 0.282,-0.003 0.574,-0.003 0.87,-0.005 v 0 c 0.062,0.63 0.16,1.275 0.3,1.932 v 0 l 0.001,0.016 -0.001,0.003 c -0.022,-0.002 -0.035,-0.004 -0.049,-0.004" />
                      </g>
                    </g>
                  </g>
                </g>
                <g
                   id="g1221">
                  <g
                     id="g1219">
                    <g
                       id="g1217">
                      <g
                         id="g1215">
                        <path
                           inkscape:connector-curvature="0"
                           id="path1213"
                           style="fill:url(#linearGradient947);stroke:none"
                           d="m 462.623,99.4 c 0,0 -9.2,-0.657 -9.684,-1.473 v 0 c -1.456,-2.782 -1.486,-7.435 -1.486,-7.435 v 0 l 0.005,0.016 c 0.004,0.018 0.02,0.036 0.029,0.062 v 0 c 0.155,0.177 1.949,0.439 3.911,0.694 v 0 c 1.128,0.145 2.649,0.266 3.614,0.358 v 0 c 0.014,0 0.028,0.002 0.05,0.004 v 0 -0.002 c 3.2,0.315 9.296,0.758 12.777,0.847 v 0 c 8.536,0.238 15.905,0.169 21.011,-0.062 v 0 c 1.479,8.934 -4.377,16.041 -13.394,16.041 v 0 c -6.483,0 -12.882,-3.675 -16.833,-9.05" />
                      </g>
                    </g>
                  </g>
                </g>
                <g
                   id="g1229">
                  <g
                     id="g1227"
                     clip-path="url(#clipPath951)">
                    <g
                       id="g1225"
                       transform="translate(489.8415,84.8565)">
                      <path
                         inkscape:connector-curvature="0"
                         id="path1223"
                         style="fill:#e21f33;fill-opacity:1;fill-rule:nonzero;stroke:none"
                         d="m 0,0 c -2.633,0.023 -12.348,0.098 -16.667,-0.035 -0.016,-0.002 -2.008,-0.079 -2.068,-0.08 -4.661,-0.188 -8.609,-0.485 -11.827,-0.795 l -10e-4,-0.004 c 1.635,-5.434 6.502,-9.15 13.027,-9.15 6.879,0 13.671,4.144 17.536,10.064" />
                    </g>
                  </g>
                </g>
                <g
                   id="g1239">
                  <g
                     id="g1237">
                    <g
                       id="g1235">
                      <g
                         id="g1233">
                        <path
                           inkscape:connector-curvature="0"
                           id="path1231"
                           style="fill:url(#linearGradient963);stroke:none"
                           d="m 471.839,92.476 c -3.481,-0.09 -9.577,-0.537 -12.777,-0.85 v 0 c -0.072,-0.354 -0.184,-0.934 -0.274,-1.705 v 0 c 0,0 -0.004,-0.031 -0.008,-0.049 v 0 c -0.027,-0.263 -0.05,-0.525 -0.067,-0.785 v 0 c 0,-0.014 -0.003,-0.035 -0.003,-0.053 v 0 c -0.018,-0.248 -0.021,-0.502 -0.023,-0.754 v 0 c -0.007,-0.157 0.002,-0.321 0.005,-0.471 v 0 c 0,-0.132 0,-0.263 0.003,-0.392 v 0 c 0.015,-0.275 0.033,-0.556 0.058,-0.829 v 0 c 0.009,-0.073 0.023,-0.151 0.031,-0.229 v 0 c 0.025,-0.207 0.053,-0.419 0.09,-0.629 v 0 c 0.012,-0.086 0.023,-0.164 0.038,-0.254 v 0 c 0.039,-0.197 0.078,-0.397 0.119,-0.593 v 0 c 0.016,-0.081 0.037,-0.155 0.06,-0.233 v 0 c 0.047,-0.201 0.102,-0.407 0.16,-0.606 v 0 c 0.006,-0.034 0.017,-0.062 0.027,-0.102 v 0 c 3.218,0.315 7.17,0.612 11.832,0.799 v 0 c 0.057,0.001 2.049,0.079 2.065,0.079 v 0 c 4.321,0.135 14.034,0.06 16.671,0.037 v 0 c 0.416,-0.004 0.671,-0.009 0.671,-0.009 v 0 c 2.207,-0.03 3.111,-0.048 5.405,-0.173 v 0 c 1.065,-0.059 2.824,-0.125 2.924,-0.354 v 0 -0.005 -0.002 c -0.004,-0.007 -0.008,-0.015 -0.012,-0.022 v 0 l 0.012,0.02 v 0.002 c 1.44,2.69 1.467,7.122 1.467,7.122 v 0 c 0.072,0.389 -2.708,0.765 -7.46,0.973 v 0 c -2.916,0.139 -6.558,0.214 -10.74,0.214 v 0 c -3.147,0 -6.6,-0.04 -10.274,-0.147" />
                      </g>
                    </g>
                  </g>
                </g>
                <g
                   id="g1265">
                  <g
                     id="g1263"
                     clip-path="url(#clipPath967)">
                    <g
                       id="g1261">
                      <g
                         id="g1241" />
                      <g
                         id="g1259"
                         mask="url(#mask989)">
                        <g
                           id="g1243" />
                        <g
                           id="g1257">
                          <g
                             id="g1255"
                             clip-path="url(#clipPath1017)">
                            <g
                               id="g1253">
                              <g
                                 id="g1251">
                                <g
                                   id="g1249">
                                <g
                                   id="g1247">
                                <path
                                   inkscape:connector-curvature="0"
                                   id="path1245"
                                   style="fill:url(#linearGradient1029);stroke:none"
                                   d="m 459.278,74.793 h 30.563 v 10.108 h -30.563 z" />
                                </g>
                                </g>
                              </g>
                            </g>
                          </g>
                        </g>
                      </g>
                    </g>
                  </g>
                </g>
                <g
                   id="g1291">
                  <g
                     id="g1289"
                     clip-path="url(#clipPath1033)">
                    <g
                       id="g1287">
                      <g
                         id="g1267" />
                      <g
                         id="g1285"
                         mask="url(#mask1055)">
                        <g
                           id="g1269" />
                        <g
                           id="g1283">
                          <g
                             id="g1281"
                             clip-path="url(#clipPath1083)">
                            <g
                               id="g1279">
                              <g
                                 id="g1277">
                                <g
                                   id="g1275">
                                <g
                                   id="g1273">
                                <path
                                   inkscape:connector-curvature="0"
                                   id="path1271"
                                   style="fill:url(#linearGradient1095);stroke:none"
                                   d="m 459.713,100.463 29.115,-10.597 6.378,17.524 -29.111,10.597 z" />
                                </g>
                                </g>
                              </g>
                            </g>
                          </g>
                        </g>
                      </g>
                    </g>
                  </g>
                </g>
                <g
                   id="g1317">
                  <g
                     id="g1315"
                     clip-path="url(#clipPath1099)">
                    <g
                       id="g1313">
                      <g
                         id="g1293" />
                      <g
                         id="g1311"
                         mask="url(#mask1123)">
                        <g
                           id="g1295" />
                        <g
                           id="g1309">
                          <g
                             id="g1307"
                             clip-path="url(#clipPath1151)">
                            <g
                               id="g1305">
                              <g
                                 id="g1303">
                                <g
                                   id="g1301">
                                <g
                                   id="g1299">
                                <path
                                   inkscape:connector-curvature="0"
                                   id="path1297"
                                   style="fill:url(#linearGradient1165);stroke:none"
                                   d="m 455.744,78.126 23.599,-17.777 15.601,20.705 -23.598,17.779 z" />
                                </g>
                                </g>
                              </g>
                            </g>
                          </g>
                        </g>
                      </g>
                    </g>
                  </g>
                </g>
                <g
                   id="g1327">
                  <g
                     id="g1325">
                    <g
                       id="g1323">
                      <g
                         id="g1321">
                        <path
                           inkscape:connector-curvature="0"
                           id="path1319"
                           style="fill:url(#linearGradient1177);stroke:none"
                           d="m 489.842,84.857 c -0.388,-0.59 -0.799,-1.157 -1.241,-1.708 v 0 h 0.004 c 6.076,0.182 10.071,0.614 10.243,1.163 v 0 0.004 0.005 c -0.1,0.229 -1.855,0.295 -2.917,0.354 v 0 c -2.3,0.125 -3.203,0.143 -5.414,0.173 v 0 c 0,0 -0.252,0.005 -0.675,0.009 v 0 c 0,0 0,0 0,0 m -0.008,0 h 0.008 z m -0.005,0 h 0.005 z" />
                      </g>
                    </g>
                  </g>
                </g>
                <g
                   id="g1335">
                  <g
                     id="g1333"
                     clip-path="url(#clipPath1181)">
                    <g
                       id="g1331"
                       transform="translate(487.0466,67.0869)">
                      <path
                         inkscape:connector-curvature="0"
                         id="path1329"
                         style="fill:#1a213e;fill-opacity:1;fill-rule:nonzero;stroke:none"
                         d="M 0,0 -0.213,-0.996 C -0.341,-1.459 -0.68,-1.782 -1.182,-1.789 h -0.222 c -2.007,-0.008 -2.131,-0.553 -2.522,-2.422 l -0.481,-2.203 c -0.584,-2.818 -3.119,-2.875 -3.338,-2.875 h -5.089 l 0.214,1.002 c 0.133,0.486 0.503,0.76 0.967,0.795 h 1.221 c 2.007,0.006 2.138,0.552 2.519,2.41 l 0.481,2.213 C -6.827,-0.062 -3.769,0 -3.299,0 Z m -25.892,-3.799 h 4.226 l -0.214,-0.972 c -0.076,-0.434 -0.523,-0.799 -0.959,-0.799 h -3.429 l -0.414,-1.922 h 4.23 l -0.225,-1.031 c -0.08,-0.422 -0.519,-0.766 -0.949,-0.766 h -6.073 c -0.186,0.01 -0.88,0.078 -0.77,0.851 l 1.632,7.641 C -28.743,-0.355 -28.312,0 -27.872,0 l 7.022,0.001 -0.218,-0.989 c -0.093,-0.449 -0.525,-0.801 -0.962,-0.801 h -3.43 z M 15.781,-7.492 H 19 l -0.221,-1.031 c -0.084,-0.422 -0.525,-0.766 -0.954,-0.766 h -5.061 c -0.184,0.01 -0.879,0.078 -0.762,0.851 l 1.627,7.641 C 13.721,-0.355 14.152,0 14.591,0 l 2.796,0.001 z m -55.113,-1.797 h -2.655 c -0.179,0.01 -0.873,0.078 -0.763,0.851 l 1.633,7.641 C -41.026,-0.355 -40.591,0 -40.153,0 l 4.492,0.001 c 0.652,0 1.215,-0.034 1.703,-0.114 0.496,-0.074 0.922,-0.199 1.287,-0.383 0.355,-0.182 0.598,-0.359 0.839,-0.724 0.248,-0.364 0.314,-0.639 0.347,-1.085 0.078,-1.07 -0.389,-1.79 -1.334,-2.394 -0.877,-0.461 -2.088,-0.537 -2.371,-0.545 0,0 -0.3,-0.068 0.044,-0.151 0,0 0.418,-0.109 0.761,-0.421 0.747,-0.582 1.296,-1.198 2.978,-3.473 h -3.979 c 0,0 -0.687,1.377 -2.105,3.43 -0.322,0.457 -0.836,0.375 -1.027,0.396 z m 4.316,6.816 c -0.022,0.377 -0.183,0.645 -0.479,0.797 -0.295,0.16 -0.719,0.235 -1.278,0.235 h -0.88 l -0.539,-2.497 h 0.88 c 0.758,0 1.34,0.122 1.744,0.385 0.4,0.262 0.586,0.621 0.552,1.08 m 15.242,-6.816 c 0,0 -0.936,-0.035 -0.81,0.851 l 1.632,7.641 c 0.094,0.443 0.525,0.798 0.967,0.798 h 3.939 c 0.721,0 1.354,-0.044 1.893,-0.129 0.541,-0.081 1.023,-0.218 1.424,-0.417 0.395,-0.197 0.706,-0.454 0.933,-0.771 0.219,-0.317 0.352,-0.791 0.377,-1.262 0.074,-1.07 -0.421,-1.942 -1.467,-2.594 -1.048,-0.658 -2.552,-0.908 -4.504,-0.908 h -1.088 l -0.685,-3.209 z m 6.836,6.783 c -0.02,0.36 -0.197,0.627 -0.518,0.801 -0.329,0.18 -0.796,0.264 -1.416,0.264 h -0.625 l -0.589,-2.782 h 0.496 c 0.871,0 1.537,0.149 2.004,0.444 0.469,0.299 0.681,0.72 0.648,1.273 M 3.75,-3.027 C 2.549,-4.4 2.24,-6.187 3.063,-7.018 3.879,-7.85 5.52,-7.416 6.717,-6.041 c 1.201,1.367 1.515,3.154 0.692,3.988 -0.818,0.83 -2.454,0.396 -3.659,-0.974 m -4.615,-3.239 c -0.496,2.662 1.945,5.62 5.035,6.467 3.584,0.723 6.609,-0.648 7.153,-3.404 0.378,-2.69 -1.694,-5.506 -5.166,-6.317 -3.29,-0.617 -6.458,0.567 -7.022,3.254" />
                    </g>
                  </g>
                </g>
                <g
                   id="g1435">
                  <g
                     id="g1433"
                     clip-path="url(#clipPath1185)">
                    <g
                       id="g1339"
                       transform="translate(728.7887,35.5791)" />
                    <g
                       id="g1343"
                       transform="translate(108.7594,296.793)" />
                    <g
                       id="g1347"
                       transform="translate(682.8634,167.5381)" />
                    <g
                       id="g1351"
                       transform="translate(44.9753,296.794)" />
                    <g
                       id="g1355"
                       transform="translate(46.2775,296.793)" />
                    <g
                       id="g1361"
                       transform="translate(180.2419,296.792)" />
                    <g
                       id="g1365"
                       transform="translate(248.1852,333.9297)" />
                    <g
                       id="g1369"
                       transform="translate(55.1667,331.291)" />
                    <g
                       id="g1373"
                       transform="translate(240.5788,331.253)" />
                    <g
                       id="g1377"
                       transform="translate(300.4074,328.8965)" />
                    <g
                       id="g1383"
                       transform="translate(383.2316,314.7998)" />
                    <g
                       id="g1387"
                       transform="translate(309.8918,305.7129)" />
                    <g
                       id="g1391"
                       transform="translate(290.9924,326.375)" />
                    <g
                       id="g1395"
                       transform="translate(44.9753,296.794)" />
                    <g
                       id="g1399"
                       transform="translate(44.9753,296.8819)" />
                    <g
                       id="g1403"
                       transform="translate(309.8918,305.7129)" />
                    <g
                       id="g1407"
                       transform="translate(46.2775,331.253)" />
                    <g
                       id="g1411"
                       transform="translate(290.9924,326.375)" />
                    <g
                       id="g1415"
                       transform="translate(236.8312,329.9697)" />
                    <g
                       id="g1419"
                       transform="translate(52.0536,296.8457)" />
                    <g
                       id="g1423"
                       transform="translate(236.8312,329.9697)" />
                    <g
                       id="g1427"
                       transform="translate(236.8312,329.9697)" />
                    <g
                       id="g1431"
                       transform="translate(57.8012,331.253)" />
                  </g>
                </g>
                <g
                   id="g1463"
                   transform="translate(238.0666,747.0235)" />
              </g>
            </g>
          </g>
        </g>
      </g>
    </g>
  </g>
</svg>
