<?xml version="1.0" encoding="utf-8"?>
<!-- Generator: Adobe Illustrator 25.0.1, SVG Export Plug-In . SVG Version: 6.00 Build 0)  -->
<svg version="1.0" id="katman_1" xmlns="http://www.w3.org/2000/svg" xmlns:xlink="http://www.w3.org/1999/xlink" x="0px" y="0px"
	 viewBox="0 0 560 400" style="enable-background:new 0 0 560 400;" xml:space="preserve">
<style type="text/css">
	.st0{fill:#002A53;}
</style>
<g>
	<path class="st0" d="M230.1,330l0.3-1.6c10.8-1.8,12.8-15.2,12.8-15.2l11.2-56.5c0,0,2-15.8,15.8-15.8H292c0,0,15.2-0.8,11.6,15.8
		c-4.2,19.4-10.6,51.4-10.6,51.4S289.6,330,272,330C258.3,330,238.3,330,230.1,330 M424.4,237.1c-6.2,7.9-14.4,11.1-24.1,11.1
		c-15.5,0-22-13.2-18.7-30.6c3.3-17.4,3.8-17.1,9.7-49.5c0,0,2.4-18.9,14.8-20.6l0.3-1.6l-245.5,0c0,0-21.2-1.5-26.2,20.5
		c-5.5,24.5-27.1,136.3-27.1,136.3s-7.1,27.5,23.8,27.5c30.2,0,30.7,0,64.1,0c0,0,23.7,0.9,28.3-21.8c5.2-25.4,13.7-67.2,13.7-67.2
		s3-19.4,24.4-19.4h47.3c0,0,21.3-0.8,17.6,19.9L315.5,298c0,0-8.2,32,20.7,32h43c0,0,27.8,2,33.3-26.8c2.8-14.7,10-48.6,13.5-66.1
		L424.4,237.1L424.4,237.1z M191.5,174.2c10.6,0,8.3,10.8,8.3,10.8c-11.5,56.6-22.6,106.2-22.6,106.2s-1.3,10-12.7,10
		c-9.7,0-7.4-10-7.4-10l22.7-106.4C179.8,184.9,181.6,174.2,191.5,174.2z M288.8,208.9c-7.5-1.4-12.1-9.7-10.5-18.4
		c0,0,1.5-13.5,19.7-29.9h0c10.8,22.1,7.1,35.1,7.1,35.1c-1.7,8.7-9.1,14.6-16.5,13.2L288.8,208.9z"/>
	<path class="st0" d="M152.2,71.1c-5.8,0-6.3,3.1-7.7,10.4l-0.5,2.7l1.6,0l0.1-0.5c0.3-1.3,0.8-2,3.1-2h9.5
		c-0.3,1.5-9.2,46.6-9.2,46.6c-0.1,0.4-0.1,0.8-0.1,1.1c0,0.2,0,0.4,0,0.5c0.1,2.6,1.9,3.9,5.5,3.9h12.1l0.3-1.7l-0.7-0.1
		c-1.9-0.2-3.2-2.2-2.5-5.1c0,0,8.2-40.3,9.2-45.2h9c5,0,5.4-1.9,6.7-9.8l0.1-0.9L152.2,71.1z"/>
	<path class="st0" d="M223.9,71h-0.5l-0.3,1.6l0.7,0.1c2.7,0.8,2.2,3.5,2.1,4.6c0,0-7.5,36.4-7.5,36.4c-1.1,5.3-3.7,9.8-10.1,9.8
		c-9,0-8.3-4-7.7-8.3l8-39.9c0,0,1.1-4.2-3.3-4.2h-9.6l-9.8,44.6c-0.4,1.7-0.5,3.4-0.4,5.1c0.4,9.4,6.9,13.7,21.2,13.7
		c15.7,0,22.8-4.7,25.3-16.8l8.7-42c0,0,1.4-4.6-4.4-4.6L223.9,71"/>
	<path class="st0" d="M239.8,128.6C239.8,128.6,239.8,128.6,239.8,128.6c-1,5,1.9,5.2,3.6,5.2h23.3c4.2,0,6.1-1.5,6.7-5.3
		c0,0,1.7-8.6,1.7-8.6h-1.8l-0.1,0.4c-0.5,1.7-2.5,2.5-5.4,2.5h-12.4c0.3-1.5,9.6-47.5,9.6-47.5c0.5-2.7-0.1-4.2-3.3-4.2h-10.5
		l-0.1,0.5L239.8,128.6z"/>
	<path class="st0" d="M277.8,128.6C277.8,128.6,277.8,128.6,277.8,128.6c-1,5,1.9,5.2,3.6,5.2h23.3c4.2,0,6.1-1.5,6.7-5.3
		c0,0,1.7-8.6,1.7-8.6h-1.8l-0.1,0.4c-0.5,1.7-2.5,2.5-5.4,2.5h-12.4c0.3-1.5,9.6-47.5,9.6-47.5c0.5-2.7-0.1-4.2-3.3-4.2h-10.5
		l-0.1,0.5L277.8,128.6z"/>
	<path class="st0" d="M322,85.5c-1.4,3.3-2.9,9.3-4.3,17c-1.3,6.9-1.9,12-1.9,15.4c0,0.4,0,0.7,0,1c0.4,10.7,7.1,15.7,21,15.7
		c13.8,0,20.2-3.6,25.2-14.3c1.8-3.9,3.8-11.7,5.5-21.6c1-5.8,1.4-10.1,1.2-13.2c-0.4-10.4-7.9-15.6-22.1-15.6
		C333.8,70,326.7,74.5,322,85.5 M330.8,116.4c-0.1-1.8,0.5-11,4.5-24.5c2.3-7.5,5.5-10.7,10.7-10.7c5,0,7.4,2.4,7.6,7.7
		c0.1,2-0.4,10.6-3.9,22.9c-2.4,8.7-5.3,11.9-10.9,11.9C333.8,123.7,330.9,121.1,330.8,116.4L330.8,116.4z"/>
	<path class="st0" d="M403.7,212.3c1.2-6.2,5.7-9.7,12.1-9.7c2.6,0,4.7,0.7,6.2,2.2c2,1.9,2.2,4.3,1.5,7.9l-0.9,4.5h7.2l-1,5.3
		h-27.1L403.7,212.3z M418.4,217.2l0.6-3.2c0.8-4.1-0.3-5.9-4.7-5.9c-4.2,0-5.8,1.5-6.6,5.4l-0.7,3.6H418.4z"/>
	<path class="st0" d="M426.6,197.2h-27.1l1.1-5.5h27.1L426.6,197.2z"/>
	<path class="st0" d="M427.8,168.5h4.3l-1.4,7.1c-0.6,3.3-1.7,5.6-3.8,7.5c-2.1,1.8-5.1,2.9-8.1,2.9c-3.1,0-5.7-1.1-7.1-2.9
		c-1.4-1.9-1.6-4.2-0.9-7.5l1.4-7.1h4.3l-1.1,5.6c-0.9,4.5-0.1,6.5,4.5,6.5c2.4,0,4.1-0.7,5.4-2.3c0.8-1.1,1.1-2.4,1.4-4.2
		L427.8,168.5z"/>
	<path class="st0" d="M448.9,71.2L448.9,71.2l-0.3,0c-0.1,0-0.1,0-0.2,0l-4.7,0H436l-0.3,1.7l0.7,0.1c1.5,0.1,2.2,2,2.2,3.1
		c0,0.4,0.1,1-0.1,1.5l0,0l-7.4,36.5c-1.4,7.5-3.3,9.6-9.8,9.8c-5.7-0.3-6.6-2.7-6.7-4.8c-0.1-0.9,0.2-2.1,0.4-3.5l0.8-4.2
		c2.2-11.8,6.7-35.3,6.7-35.3c0,0,0.1-1.7,0.1-1.7c0-0.1,0-0.2,0-0.2c0-0.1,0-0.2,0-0.2c-0.1-2.3-1.9-2.7-3.6-2.7h-9.6l-7.1,35.5
		l-1.5,7.4c-1.4,7.5-3,9.6-9.8,9.8c-5.7-0.3-6.6-2.7-6.7-4.8c-0.1-0.9,0.2-2.1,0.4-3.5l7.3-39.9c0,0,0.2-1.7,0.2-1.7
		c-0.1-2.3-1.9-2.7-3.6-2.7h-9.6l-9,44.8c-0.3,1.7-0.4,3.4-0.3,5.1c0.5,9,6.5,13.2,19.4,13.6c0,0,10.3,0.2,16.8-3.7
		c3.1,1.9,7.6,3.5,13.6,3.7l0.5,0c0.7,0,1.5,0,2.2,0c14.2-0.4,20.7-5.3,22.9-16.8l7.9-42c0,0,0.1-1.7,0.1-1.7
		C452.9,71.7,450.9,71.3,448.9,71.2"/>
	<path class="st0" d="M438.5,77.6l0,0.1C438.5,77.6,438.5,77.6,438.5,77.6"/>
	<path class="st0" d="M438.4,78.5c0.1-0.3,0.1-0.5,0.1-0.7L438.4,78.5z"/>
	<path class="st0" d="M438.4,78.5l-0.2,1.1C438.2,79.2,438.3,78.8,438.4,78.5"/>
</g>
</svg>
