<svg width="380" height="150" xmlns="http://www.w3.org/2000/svg">
 <style type="text/css">.st0{fill:#54585A;}
	.st1{fill:#FFFFFF;}
	.st2{fill:#006BA6;}</style>

 <g>
  <title>background</title>
  <rect fill="none" id="canvas_background" height="404" width="584" y="-1" x="-1"/>
 </g>
 <g>
  <title>Layer 1</title>
  <g id="svg_1">
   <g id="svg_2">
    <g id="svg_3">
     <g id="svg_4">
      <g id="svg_5">
       <path id="svg_6" d="m218.270002,141.270002c-0.09,3.64 2.43,6.07 5.76,6.07c2.24,0 4.05,-1.34 5.07,-3.27l1.18,0.68c-1.31,2.49 -3.61,3.89 -6.44,3.89c-4.26,0 -6.97,-3.45 -6.97,-7.53c0,-4.01 2.77,-7.47 6.97,-7.47c4.36,0 6.94,3.49 6.91,7.62l-12.48,0l0,0.01zm11.08,-1.31c-0.34,-2.65 -2.52,-5.01 -5.48,-5.01c-2.93,0 -5.35,2.3 -5.6,5.01l11.08,0z" class="st0"/>
       <path id="svg_7" d="m235.120002,135.820002l0.06,0c0.56,-1.31 1.59,-2.18 3.11,-2.18c0.56,0 1.03,0.12 1.52,0.34l-0.75,1.24c-0.34,-0.19 -0.62,-0.28 -1,-0.28c-3.14,0 -2.96,3.92 -2.96,6.04l0,7.34l-1.4,0l0,-14.38l1.4,0l0,1.88l0.02,0z" class="st0"/>
       <path id="svg_8" d="m244.270002,129.380002c0,0.72 -0.56,1.28 -1.28,1.28c-0.72,0 -1.28,-0.56 -1.28,-1.28c0,-0.68 0.56,-1.28 1.28,-1.28c0.72,0.01 1.28,0.6 1.28,1.28zm-0.59,18.95l-1.4,0l0,-14.38l1.4,0l0,14.38z" class="st0"/>
       <path id="svg_9" d="m254.180002,136.570002c-0.47,-1 -1.4,-1.62 -2.52,-1.62c-1.21,0 -2.46,1 -2.46,2.24c0,3.45 7,1.77 7,6.97c0,2.65 -2.05,4.48 -4.64,4.48c-2.4,0 -4.36,-1.46 -4.95,-3.8l1.37,-0.44c0.53,1.71 1.68,2.93 3.58,2.93c1.8,0 3.24,-1.43 3.24,-3.24c0,-1.77 -1.37,-2.33 -2.8,-2.83c-1.96,-0.72 -4.2,-1.56 -4.2,-3.98c0,-2.18 1.84,-3.64 3.92,-3.64c1.46,0 3.05,0.96 3.67,2.3l-1.21,0.63z" class="st0"/>
       <path id="svg_10" d="m260.630002,140.050002l5.91,-6.1l1.8,0l-6.04,6.22l8.06,8.15l-1.84,0l-7.13,-7.19l-0.78,0.81l0,6.38l-1.4,0l0,-21.22l1.4,0l0,12.95l0.02,0z" class="st0"/>
       <g id="svg_11">
        <g id="svg_12">
         <polygon id="svg_13" points="217.6099853515625,127.16000366210938 217.60003662109375,127.19998168945312 209.9000244140625,149.07998657226562 202.280029296875,127.16000366210938 203.6700439453125,127.16000366210938 203.67996215820312,127.17999267578125 209.95001220703125,145.19998168945312 209.969970703125,145.19998168945312 216.22000122070312,127.16000366210938 " class="st0"/>
        </g>
       </g>
      </g>
      <g id="svg_14">
       <path id="svg_15" d="m305.600002,133.960002l0,8.62c0,1.46 0.03,2.93 -0.87,4.14c-1,1.31 -2.68,1.93 -4.29,1.93c-1.62,0 -3.3,-0.62 -4.29,-1.93c-0.9,-1.21 -0.87,-2.68 -0.87,-4.14l0,-8.62l1.4,0l0,8.12c0,2.77 0.31,5.26 3.77,5.26c3.45,0 3.77,-2.49 3.77,-5.26l0,-8.12l1.38,0z" class="st0"/>
       <path id="svg_16" d="m315.600002,136.570002c-0.47,-1 -1.4,-1.62 -2.52,-1.62c-1.21,0 -2.46,1 -2.46,2.24c0,3.45 7,1.77 7,6.97c0,2.65 -2.05,4.48 -4.64,4.48c-2.4,0 -4.36,-1.46 -4.95,-3.8l1.37,-0.44c0.53,1.71 1.68,2.93 3.58,2.93c1.8,0 3.24,-1.43 3.24,-3.24c0,-1.77 -1.37,-2.33 -2.8,-2.83c-1.96,-0.72 -4.2,-1.56 -4.2,-3.98c0,-2.18 1.84,-3.64 3.92,-3.64c1.46,0 3.05,0.96 3.67,2.3l-1.21,0.63z" class="st0"/>
       <path id="svg_17" d="m322.810002,129.380002c0,0.72 -0.56,1.28 -1.28,1.28c-0.72,0 -1.28,-0.56 -1.28,-1.28c0,-0.68 0.56,-1.28 1.28,-1.28c0.72,0.01 1.28,0.6 1.28,1.28zm-0.59,18.95l-1.4,0l0,-14.38l1.4,0l0,14.38z" class="st0"/>
       <path id="svg_18" d="m327.980002,136.200002l0.06,0c0.84,-1.59 2.4,-2.55 4.26,-2.55c3.7,0 4.73,2.3 4.73,6.01l0,8.68l-1.4,0l0,-8.68c0,-2.58 -0.31,-4.7 -3.45,-4.7c-3.61,0 -4.2,3.36 -4.2,6.29l0,7.1l-1.4,0l0,-14.38l1.4,0l0,2.23z" class="st0"/>
       <path id="svg_19" d="m341.450002,141.270002c-0.09,3.64 2.43,6.07 5.76,6.07c2.24,0 4.05,-1.34 5.07,-3.27l1.18,0.68c-1.31,2.49 -3.61,3.89 -6.44,3.89c-4.26,0 -6.97,-3.45 -6.97,-7.53c0,-4.01 2.77,-7.47 6.97,-7.47c4.36,0 6.94,3.49 6.91,7.62l-12.48,0l0,0.01zm11.08,-1.31c-0.34,-2.65 -2.52,-5.01 -5.48,-5.01c-2.93,0 -5.35,2.3 -5.6,5.01l11.08,0z" class="st0"/>
       <path id="svg_20" d="m363.120002,136.570002c-0.47,-1 -1.4,-1.62 -2.52,-1.62c-1.21,0 -2.46,1 -2.46,2.24c0,3.45 7,1.77 7,6.97c0,2.65 -2.05,4.48 -4.64,4.48c-2.4,0 -4.36,-1.46 -4.95,-3.8l1.37,-0.44c0.53,1.71 1.68,2.93 3.58,2.93c1.8,0 3.24,-1.43 3.24,-3.24c0,-1.77 -1.37,-2.33 -2.8,-2.83c-1.96,-0.72 -4.2,-1.56 -4.2,-3.98c0,-2.18 1.84,-3.64 3.92,-3.64c1.46,0 3.05,0.96 3.67,2.3l-1.21,0.63z" class="st0"/>
       <path id="svg_21" d="m374.670002,136.570002c-0.47,-1 -1.4,-1.62 -2.52,-1.62c-1.21,0 -2.46,1 -2.46,2.24c0,3.45 7,1.77 7,6.97c0,2.65 -2.05,4.48 -4.64,4.48c-2.4,0 -4.36,-1.46 -4.95,-3.8l1.37,-0.44c0.53,1.71 1.68,2.93 3.58,2.93c1.8,0 3.24,-1.43 3.24,-3.24c0,-1.77 -1.37,-2.33 -2.8,-2.83c-1.96,-0.72 -4.2,-1.56 -4.2,-3.98c0,-2.18 1.84,-3.64 3.92,-3.64c1.46,0 3.05,0.96 3.67,2.3l-1.21,0.63z" class="st0"/>
       <g id="svg_22">
        <path id="svg_23" d="m290.780002,138.940002c-0.77,-0.94 -1.85,-1.58 -3.11,-1.85c1.61,-0.93 2.4,-2.34 2.4,-4.3c0,-1.89 -0.6,-3.37 -1.77,-4.39c-1.28,-1.14 -2.87,-1.24 -4.39,-1.24l-4.25,0l0,21.17l5.43,0c1.89,0 3.46,-0.26 4.95,-1.51c1.29,-1.1 1.97,-2.62 1.97,-4.39c-0.02,-1.32 -0.44,-2.53 -1.23,-3.49zm-7.44,-10.47c1.25,0 2.54,0 3.6,0.67c1.1,0.69 1.73,1.95 1.73,3.45c0,1.6 -0.45,2.57 -1.56,3.37c-1.01,0.73 -1.99,0.78 -3.1,0.78l-2.97,0l0,-8.28l2.3,0l0,0.01zm5.19,17.75c-1.2,0.82 -2.65,0.81 -4.04,0.81l-3.46,0l0,-8.97l2.94,0c1.57,0 3.21,0.05 4.44,0.67c1.32,0.65 2.17,2.12 2.17,3.76c0.02,1.51 -0.71,2.83 -2.05,3.73z" class="st0"/>
       </g>
      </g>
      <g id="svg_24">
       <g id="svg_25">
        <path id="svg_26" d="m186.090002,126.480002l-0.02,-0.06l-8.88,21.88l-0.01,0.03l1.42,0l2.83,-6.94l9.24,0l2.82,6.93l0,0.01l1.43,0l-8.83,-21.85zm-4.14,13.6l4.11,-10.11l4.08,10.11l-8.19,0z" class="st0"/>
       </g>
      </g>
     </g>
    </g>
    <rect id="svg_27" height="1.2" width="378.56" class="st0" y="117.000002" x="0.330002"/>
   </g>
   <g id="svg_28">
    <g id="svg_29">
     <g id="svg_30">
      <path id="svg_31" d="m101,50.010002c0,27.61 -22.61,49.99 -50.5,49.99c-27.89,0 -50.5,-22.38 -50.5,-49.99c0,-27.61 22.61,-50.01 50.5,-50.01c27.9,0 50.5,22.39 50.5,50.01z" class="st1"/>
     </g>
     <path id="svg_32" d="m7.78,23.360002c2.4,-3.76 5.28,-7.19 8.58,-10.18c22.13,-6.18 46.17,-6.18 68.29,0c3.29,3 6.18,6.42 8.58,10.18c-27.26,-6.89 -58.19,-6.89 -85.45,0zm48.92,7.1c3.13,-4.55 5.37,-7.65 6.52,-9.22c-19.36,-1.36 -39.21,0.37 -57.28,5.25c-1.35,2.5 -2.48,5.13 -3.39,7.87c16.98,-2.97 35.66,-4.28 54.15,-3.9zm-7.73,39.15c-2,2.88 -4.42,6.24 -6.79,9.46c17.96,0.83 36.19,-1.03 52.9,-5.56c1.34,-2.5 2.48,-5.12 3.38,-7.84c-15.09,2.64 -31.52,3.96 -47.96,3.96c-0.51,0 -1.02,-0.02 -1.53,-0.02zm5.97,-36.58c-18.23,-0.27 -36.58,1.12 -53.24,4.13c-0.6,2.24 -1.04,4.55 -1.32,6.9c15.09,-0.93 31.59,-1.42 48.17,-1.46c2.36,-3.61 4.5,-6.81 6.39,-9.57zm-14.58,48.5c-2.82,3.8 -5.36,7.13 -6.72,8.83c17.01,2.25 34.54,1.07 51,-3.52c3.3,-3 6.19,-6.43 8.59,-10.2c-13.63,3.44 -28.17,5.2 -42.72,5.2c-3.39,0.01 -6.78,-0.12 -10.15,-0.31zm39.36,-72.3c-8.25,-5.81 -18.33,-9.23 -29.22,-9.23s-20.97,3.43 -29.22,9.23c19.11,-4.38 39.34,-4.38 58.44,0zm-20.85,45.54c14.5,-0.13 28.81,-0.61 42.01,-1.44c0.07,-1.1 0.12,-2.21 0.12,-3.33c0,-1.12 -0.05,-2.23 -0.12,-3.33c-11.39,-0.71 -23.6,-1.16 -36.05,-1.36c-1.96,3.11 -3.72,5.96 -5.96,9.46zm7.58,-12.04c11.8,0.21 23.36,0.65 34.18,1.32c-0.28,-2.36 -0.72,-4.67 -1.33,-6.91c-8.64,-1.56 -17.74,-2.68 -27.04,-3.36c-2.35,3.56 -4.2,6.42 -5.81,8.95zm-19.61,2.48c-9.68,0.04 -19.33,0.22 -28.67,0.57c0.95,1.9 2.73,5.42 4.5,8.6c5.9,0.19 11.89,0.32 17.93,0.38c1.82,-2.79 3.9,-5.98 6.24,-9.55zm-22.64,11.81c0.11,0.19 0.23,0.38 0.34,0.56c1.46,2.38 3.18,5.02 4.56,7.1c0.4,0.6 0.77,1.15 1.09,1.64c0.86,1.28 1.43,2.11 1.43,2.11s0.44,-0.66 1.27,-1.92c0.34,-0.51 0.73,-1.11 1.2,-1.82c1.19,-1.81 2.82,-4.29 4.83,-7.36c-4.96,-0.06 -9.87,-0.16 -14.72,-0.31zm26.54,10.01c16.68,-0.01 33.34,-1.41 48.57,-4.17c0.6,-2.25 1.04,-4.55 1.33,-6.91c-13.65,0.84 -28.47,1.32 -43.46,1.43c-1.75,2.68 -3.83,5.81 -6.44,9.65zm-41.23,-10.57c-3.1,-0.15 -6.14,-0.32 -9.14,-0.51c0.28,2.35 0.72,4.66 1.32,6.9c3.98,0.71 8.05,1.35 12.2,1.88c-1.86,-3.1 -3.19,-5.87 -4.38,-8.27zm12.5,20.22c-2.53,-3.32 -3.9,-5.3 -6.36,-9.11c-4.46,-0.54 -8.84,-1.19 -13.12,-1.93c0.91,2.72 2.04,5.35 3.38,7.84c5.31,1.43 10.76,2.6 16.32,3.49c-0.07,-0.1 -0.15,-0.2 -0.22,-0.29zm2.47,3.28c-5.67,-0.82 -11.25,-1.94 -16.69,-3.3c2.39,3.75 5.27,7.17 8.55,10.16c5.34,1.49 10.79,2.64 16.31,3.41c-3.38,-3.91 -5.9,-7.24 -8.17,-10.27zm-3.2,10.81c8.25,5.81 18.33,9.23 29.22,9.23s20.97,-3.43 29.22,-9.23c-9.55,2.19 -19.38,3.3 -29.22,3.3s-19.66,-1.11 -29.22,-3.3z" class="st2"/>
    </g>
    <g id="svg_33">
     <g id="svg_34">
      <g id="svg_35">
       <polygon id="svg_36" points="168.06005859375,2.510009765625 167.94000244140625,2.839996337890625 152.1500244140625,46.17999267578125 138.99005126953125,13.44000244140625 125.84002685546875,46.17999267578125 125.6199951171875,45.579986572265625 109.94000244140625,2.510009765625 115.3599853515625,2.510009765625 125.86996459960938,32.519989013671875 138.99005126953125,0.0000152587890625 152.1199951171875,32.519989013671875 162.62997436523438,2.510009765625 " class="st0"/>
      </g>
      <g id="svg_37">
       <path id="svg_38" d="m163.15,30.720002c0,-8.67 6.85,-15.64 15.52,-15.64c8.67,0 15.52,6.97 15.52,15.64c0,8.67 -6.91,15.52 -15.52,15.52c-8.61,0 -15.52,-6.85 -15.52,-15.52zm5.03,-0.06c0,6.03 4.27,10.93 10.49,10.93s10.49,-4.9 10.49,-10.93c0,-5.97 -4.27,-10.93 -10.49,-10.93s-10.49,4.96 -10.49,10.93z" class="st0"/>
       <path id="svg_39" d="m196.64,30.720002c0,-8.67 6.85,-15.64 15.52,-15.64c8.67,0 15.52,6.97 15.52,15.64c0,8.67 -6.91,15.52 -15.52,15.52c-8.61,0 -15.52,-6.85 -15.52,-15.52zm5.03,-0.06c0,6.03 4.27,10.93 10.49,10.93s10.49,-4.9 10.49,-10.93c0,-5.97 -4.27,-10.93 -10.49,-10.93s-10.49,4.96 -10.49,10.93z" class="st0"/>
       <path id="svg_40" d="m254.99,41.340002l-0.13,0c-2.45,3.2 -6.16,4.9 -10.18,4.9c-8.67,0 -14.14,-7.35 -14.14,-15.52c0,-8.42 5.34,-15.64 14.2,-15.64c3.96,0 7.73,1.88 10.12,5.03l0.13,0l0,-17.6l5.03,0l0,42.91l-5.03,0l0,-4.08zm-19.28,-10.99c0,5.78 3.39,11.25 9.68,11.25c6.47,0 9.86,-5.22 9.86,-11.18c0,-5.91 -3.71,-10.68 -9.93,-10.68c-5.84,-0.01 -9.61,5.08 -9.61,10.61z" class="st0"/>
      </g>
     </g>
     <g id="svg_41">
      <g id="svg_42">
       <path id="svg_43" d="m194.72,97.180002l-5.03,0l0,-4.08l-0.13,0c-2.58,3.27 -6.03,4.9 -10.18,4.9c-8.67,0 -14.14,-7.35 -14.14,-15.52c0,-8.42 5.34,-15.64 14.2,-15.64c4.02,0 7.66,1.88 10.12,5.03l0.13,0l0,-4.21l5.03,0l0,29.52zm-24.31,-15.07c0,5.78 3.39,11.25 9.68,11.25c6.47,0 9.86,-5.22 9.86,-11.18c0,-5.91 -3.71,-10.68 -9.93,-10.68c-5.84,-0.01 -9.61,5.08 -9.61,10.61z" class="st0"/>
       <path id="svg_44" d="m223.02,76.450002l-0.13,0c-2.32,-2.95 -5.22,-4.96 -9.17,-4.96c-6.09,0 -10.43,5.03 -10.43,10.93c0,5.84 4.02,10.93 10.18,10.93c4.21,0 7.16,-1.88 9.61,-5.09l0.13,0l0,6.72c-2.89,1.95 -5.84,3.02 -9.36,3.02c-8.92,0 -15.71,-6.66 -15.71,-15.58c0,-8.8 7.1,-15.58 15.77,-15.58c3.2,0 6.47,1.07 9.11,2.95l0,6.66z" class="st0"/>
       <path id="svg_45" d="m232.84,78.590002l10.74,-10.93l6.72,0l-12.63,12.56l15.02,16.96l-6.66,0l-11.87,-13.44l-1.32,1.32l0,12.13l-5.03,0l0,-42.91l5.03,0l0,24.31z" class="st0"/>
       <path id="svg_46" d="m255.44,83.490002c0.06,5.47 3.96,9.86 9.68,9.86c4.27,0 7.04,-2.58 8.98,-6.09l4.27,2.45c-2.83,5.28 -7.6,8.29 -13.63,8.29c-8.8,0 -14.45,-6.72 -14.45,-15.2c0,-8.73 5.09,-15.96 14.32,-15.96c9.49,0 14.51,7.85 14.01,16.65l-23.18,0zm17.91,-4.27c-0.69,-4.27 -4.27,-7.73 -8.67,-7.73c-4.34,0 -8.36,3.46 -8.98,7.73l17.65,0z" class="st0"/>
       <path id="svg_47" d="m287.62,71.240002l0.13,0c2.07,-2.83 4.78,-4.4 8.42,-4.4c8.17,0 10.05,5.91 10.05,12.82l0,17.53l-5.03,0l0,-16.65c0,-4.77 -0.38,-9.05 -6.22,-9.05c-6.91,0 -7.35,6.41 -7.35,11.69l0,14.01l-5.03,0l0,-29.53l5.03,0l0,3.58z" class="st0"/>
       <path id="svg_48" d="m338.75,92.530002l0,4.65l-30.53,0l21.3,-24.88l-17.35,0l0,-4.65l27.46,0l-21.24,24.88l20.36,0z" class="st0"/>
       <path id="svg_49" d="m348.39,57.850002c0,2.01 -1.63,3.58 -3.58,3.58c-1.95,0 -3.58,-1.57 -3.58,-3.58c0,-1.95 1.63,-3.58 3.58,-3.58c1.94,0 3.58,1.63 3.58,3.58zm-1.07,39.33l-5.03,0l0,-29.53l5.03,0l0,29.53z" class="st0"/>
       <path id="svg_50" d="m356.1,83.490002c0.06,5.47 3.96,9.86 9.68,9.86c4.27,0 7.04,-2.58 8.98,-6.09l4.27,2.45c-2.83,5.28 -7.6,8.29 -13.63,8.29c-8.8,0 -14.45,-6.72 -14.45,-15.2c0,-8.73 5.09,-15.96 14.32,-15.96c9.49,0 14.51,7.85 14.01,16.65l-23.18,0zm17.9,-4.27c-0.69,-4.27 -4.27,-7.73 -8.67,-7.73c-4.34,0 -8.36,3.46 -8.98,7.73l17.65,0z" class="st0"/>
      </g>
      <g id="svg_51">
       <g id="svg_52">
        <g id="svg_53">
         <g id="svg_54">
          <polygon id="svg_55" points="163.33001708984375,97.19000244140625 158.17999267578125,97.19000244140625 152.8599853515625,69.35000610351562 139,98.489990234375 125.1500244140625,69.35000610351562 119.83001708984375,97.19000244140625 114.67996215820312,97.19000244140625 114.71002197265625,97.01998901367188 123.21002197265625,52.829986572265625 139,86.75997924804688 154.78997802734375,52.829986572265625 163.300048828125,97.01998901367188 " class="st0"/>
         </g>
        </g>
       </g>
      </g>
     </g>
    </g>
   </g>
  </g>
 </g>
</svg>